<svg xmlns="http://www.w3.org/2000/svg" width="114.417" height="114.422" viewBox="0 0 114.417 114.422">
  <g id="Groupe_65" data-name="Groupe 65" transform="translate(-153.801 -221.049)">
    <path id="Tracé_1143" data-name="Tracé 1143" d="M1007.41,1552.019c3.9-4.229,11.711-5.458,16.785-2.649,5.544,2.306,13.75-1.888,15.135-7.723.71-5.759,6.252-11.3,12.013-12.013,5.835-1.385,10.029-9.591,7.723-15.134-2.809-5.075-1.586-12.884,2.648-16.785,3.9-4.622,2.472-13.649-2.648-16.786-5.256-2.457-8.81-9.43-7.723-15.135.473-5.981-6.031-12.49-12.013-12.013-5.7,1.088-12.677-2.467-15.135-7.723-3.136-5.12-12.163-6.55-16.785-2.648-3.9,4.234-11.711,5.458-16.786,2.648-5.544-2.3-13.75,1.888-15.135,7.723-.71,5.76-6.253,11.3-12.013,12.013-5.835,1.385-10.029,9.591-7.723,15.135,2.809,5.075,1.586,12.884-2.648,16.786-3.9,4.622-2.472,13.649,2.648,16.785,5.256,2.457,8.81,9.43,7.723,15.134-.473,5.981,6.031,12.491,12.013,12.013,5.7-1.087,12.677,2.467,15.135,7.723,3.136,5.121,12.163,6.551,16.786,2.649" transform="translate(-796.401 -1219.455)" fill="#ffe800" stroke="#000" stroke-linecap="round" stroke-miterlimit="10" stroke-width="1.298"/>
    <text id="_100_numérique_" data-name="100% 
numérique " transform="translate(154 273)" font-size="14" font-family="Arial-BoldMT, Arial" font-weight="700"><tspan x="39.097" y="13">100% </tspan><tspan x="14.221" y="29">NUMÉRIQUE </tspan></text>
    <path id="Tracé_1144" data-name="Tracé 1144" d="M38.271,24.484A2.586,2.586,0,0,0,35.7,21.912a2.36,2.36,0,0,0-1.092.247,2.691,2.691,0,0,0-3.276-.986,2.7,2.7,0,0,0-2.889-1.127V18.389h4.509a6.029,6.029,0,1,0-.74-12.013A7.624,7.624,0,0,0,25.518,2.5a7.928,7.928,0,0,0-7.5,5.39,5.249,5.249,0,0,0,.035,10.5H23.4v6.835l-.846-.846a2.612,2.612,0,0,0-3.276-.317,2.668,2.668,0,0,0-1.127,1.8,2.567,2.567,0,0,0,.564,2.008l4.474,5.39a7.356,7.356,0,0,0,5.743,2.713h2.783A6.7,6.7,0,0,0,36.4,34.031a6.554,6.554,0,0,0,1.938-4.686l-.07-4.862ZM18.014,16.768a3.629,3.629,0,0,1,0-7.257c.106,0,.211.035.458.035a.84.84,0,0,0,.881-.6A6.3,6.3,0,0,1,31.12,7.608.827.827,0,0,0,32,8.031a4.9,4.9,0,0,1,.951-.106,4.439,4.439,0,1,1,0,8.878H28.513V15.148a2.677,2.677,0,0,0-.74-1.832,2.479,2.479,0,0,0-1.832-.775,2.586,2.586,0,0,0-2.572,2.572v1.656ZM35.206,32.9a5.012,5.012,0,0,1-3.558,1.48H28.865a5.788,5.788,0,0,1-4.474-2.114l-4.439-5.425a1.009,1.009,0,0,1-.211-.775.973.973,0,0,1,.423-.669,1.065,1.065,0,0,1,.564-.176,1.119,1.119,0,0,1,.7.282l1.8,1.8a1.022,1.022,0,0,0,1.127.211,1.048,1.048,0,0,0,.634-.986V15.112a.947.947,0,0,1,.951-.951.962.962,0,0,1,.951.951v6.482a.838.838,0,0,0,.564.775.8.8,0,0,0,.916-.352.976.976,0,0,1,.81-.458.965.965,0,0,1,.951,1.022.838.838,0,0,0,.564.775A.8.8,0,0,0,31.613,23a.976.976,0,0,1,.81-.458.965.965,0,0,1,.951,1.022.825.825,0,0,0,.6.775.8.8,0,0,0,.916-.352.976.976,0,0,1,.81-.458.947.947,0,0,1,.951.951v4.862A4.837,4.837,0,0,1,35.206,32.9Z" transform="translate(181.573 234.127)"/>
  </g>
</svg>
