<svg xmlns="http://www.w3.org/2000/svg" width="1636.978" height="1378.471" viewBox="0 0 1636.978 1378.471">
  <g id="Composant_29_1" data-name="Composant 29 – 1" transform="translate(0 1.039)">
    <path id="Tracé_10" data-name="Tracé 10" d="M-34.574,410.956-52.613,427.8m17.032-24.462-18.038,16.841m20.552-28.106-18.624,16.26M-31.9,382.353l-19.177,15.653m20.688-25.326-19.7,14.93m21.557-24.545-20.212,14.18m22.4-23.726-20.687,13.418m23.2-22.886L-44.958,356.7m24.028-22.125-21.625,12.068m24.82-21.331-22.024,11.26m25.54-20.407L-36.614,326.6M-10.38,307.14l-22.735,9.617m26.9-18.5-23.056,8.79m27.52-17.519-23.331,7.943m28.1-16.518-23.586,7.1m28.656-15.5-23.81,6.243m29.17-14.463-24,5.389m29.644-13.409-24.16,4.522m30.086-12.349L.66,252.23m30.62-11.438-24.524,2.95M37.734,233.4l-24.6,2.076m31.31-9.232-24.641,1.2m31.6-8.121-24.658.33m31.853-7L33.954,212.1m32.062-5.863-24.595-1.424m32.233-4.725-24.515-2.3M81.5,194.207l-24.4-3.166m32.453-2.434-24.265-4.034m32.5-1.281-24.095-4.9m32.5-.124-23.885-5.756m32.468,1.042-23.644-6.611m32.388,2.2-23.378-7.46m32.268,3.359-23.085-8.295m32.208,4.472-22.948-9.033m32.1,5.58-22.59-9.85m31.853,6.732-22.2-10.666m31.566,7.872L147.547,140.4m31.227,9-21.319-12.235m30.856,10.113-20.839-12.993m30.44,11.214-20.328-13.738m30.089,12.283L187.78,129.594m29.6,13.359-19.44-15.139m9.232,16.572-18.844-15.819m48.524,13.222-18.229-16.475M225.8,142.6l-18.229-16.476m39.133,15.585-17.691-17.1m27.434,17.377-17.025-17.721m26.755,18.33-16.456-18.3m26.158,19.251-15.75-18.87m25.414,20.158-15.033-19.408m24.746,21.059-14.4-19.947M304.8,148.459,291.045,128m23.225,22.779-12.989-20.935m22.365,23.59-12.2-21.384m21.485,24.369-11.413-21.8m20.573,25.109-10.6-22.184m19.642,25.824-9.778-22.542m18.685,26.505-8.951-22.881m17.8,27.207-8.311-23.264m16.913,27.85L370.032,152.7m15.9,28.434-6.612-23.786m14.87,28.975-5.759-24m13.83,29.482-4.9-24.186m12.77,29.951-4.036-24.343m11.7,30.381-3.164-24.468m10.606,30.771-2.293-24.561m9.515,31.125-1.422-24.622m8.4,31.438-.551-24.657m7.287,31.713.321-24.652m6.17,31.948,1.192-24.628m5.033,32.145,2.063-24.566m3.9,32.3,2.927-24.472m2.755,32.411,3.727-24.428m1.728,32.652,4.528-24.365m.579,32.688,5.385-24.18m-.582,32.678,6.243-23.962M490.4,294.545l7.087-23.719m-2.9,32.542,7.932-23.442m-4.053,32.408,8.757-23.133m-5.2,32.23,9.582-22.787m-6.349,32.007,10.388-22.419m-7.484,31.744,11.18-22.007M510.731,349.4l11.96-21.576m-9.7,31.194L525.658,337.7m-10.786,30.9L528.3,347.787m-11.875,30.474,14.15-20.3m-12.945,30L532.5,368.208M518.5,397.7l15.554-19.171m-15.02,29.046,16.21-18.681M519.22,417.344l16.842-18.159M519.07,427.123l17.46-17.506M518.585,436.9l18.044-16.835m-18.885,26.694,18.63-16.254m-19.8,25.971,19.183-15.653m-20.7,25.326,19.717-14.924M513.21,475.761l20.212-14.18m-22.4,23.726,20.687-13.419m-23.217,22.887,21.143-12.643M505.6,504.251l21.626-12.068m-24.82,21.331,22.023-11.26m-25.547,20.407,22.4-10.445m-26.235,19.47,22.736-9.618m-26.9,18.5,23.056-8.784M486.412,549.3l23.343-7.943m-28.11,16.511,23.586-7.1m-28.663,15.5,23.817-6.242m-29.176,14.456,24.007-5.382m-29.657,13.409,24.166-4.522m-30.086,12.349L484,586.59m-30.619,11.437,24.523-2.956m-30.984,10.338,24.6-2.076m-31.31,9.239,24.647-1.2m-31.61,8.12,24.665-.33m-31.859,6.995,24.649.557m-32.069,5.863,24.6,1.424m-32.233,4.724,24.515,2.3M403.146,644.6l24.4,3.172M395.1,650.2l24.265,4.041m-32.5,1.268,24.1,4.9m-32.511.116,23.886,5.763m-32.468-1.042,23.651,6.611m-32.395-2.2,23.384,7.453m-32.268-3.359,23.078,8.295m-32.207-4.472,22.948,9.033m-32.1-5.586,22.59,9.856m-31.853-6.732,22.2,10.66m-31.566-7.872,21.773,11.457m-31.227-9.006,21.319,12.241m-30.856-10.119,20.839,13m-30.44-11.221,20.328,13.745m-30.095-12.29,19.9,14.452m-29.594-13.365L286.7,710.974m-29.159-14.4,18.843,15.827m-28.589-15.413,18.223,16.475m-28.083-16.4,17.691,17.105M228.181,696.79l17.032,17.721m-26.761-18.33,16.462,18.3m-26.165-19.257,15.757,18.87m-25.413-20.158,15.032,19.409m-24.753-21.06,14.406,19.947m-23.944-21.929,13.752,20.461M170.368,687.99l12.982,20.935m-22.358-23.59,12.2,21.384M151.715,682.35l11.406,21.8m-20.573-25.116,10.6,22.184M133.5,675.4l9.778,22.548M124.6,671.431l8.951,22.874m-17.805-27.2,8.311,23.264m-16.913-27.856,7.465,23.545m-15.9-28.442,6.612,23.793M90.456,652.428l5.754,24M82.386,646.941l4.895,24.192m-12.764-29.95,4.029,24.343M66.861,635.138l3.158,24.475M59.412,628.835,61.705,653.4M52.2,622.272l1.421,24.621m-8.4-31.444.551,24.656m-7.287-31.712-.327,24.658M31.987,601.1,30.8,625.725m-5.033-32.146L23.7,618.146m-3.9-32.3-2.927,24.471m-2.748-32.41L10.4,602.337M8.67,569.685,4.136,594.05M3.57,561.356l-5.392,24.186m.582-32.684-6.242,23.968m1.743-32.635-7.094,23.718m2.9-32.542L-17.86,558.81m4.053-32.409-8.764,23.134m5.214-32.231-9.588,22.787m6.355-32.007L-30.977,530.5m7.484-31.745-11.18,22.008m8.612-31.437-11.96,21.576m9.709-31.194-12.675,21.319m10.792-30.912-13.429,20.829m11.881-30.474-14.163,20.3m12.952-30-14.865,19.752m13.995-29.49-15.554,19.178m15.02-29.046-16.21,18.675m16.031-28.453-16.848,18.158" transform="translate(80.424 -124.263)" fill="none" stroke="#315ca4" stroke-width="3"/>
    <g id="Groupe_19" data-name="Groupe 19" transform="translate(721.937 439.885)">
      <path id="Tracé_11" data-name="Tracé 11" d="M870.44,669.3a11.611,11.611,0,1,0-11.611-11.611A11.611,11.611,0,0,0,870.44,669.3" transform="translate(-858.829 -595.069)" fill="#009f3b"/>
      <path id="Tracé_12" data-name="Tracé 12" d="M895.341,644.4a11.611,11.611,0,1,0-11.611-11.61,11.611,11.611,0,0,0,11.611,11.61" transform="translate(-858.829 -595.069)" fill="#009f3b"/>
      <path id="Tracé_13" data-name="Tracé 13" d="M921.447,618.291a11.611,11.611,0,1,0-11.611-11.611,11.611,11.611,0,0,0,11.611,11.611" transform="translate(-858.829 -595.069)" fill="#009f3b"/>
    </g>
    <path id="Tracé_15" data-name="Tracé 15" d="M449.976,1464.378a42.083,42.083,0,1,0-42.086-42.087,42.089,42.089,0,0,0,42.086,42.087" transform="translate(-319.084 -202.263)" fill="#5770be"/>
    <path id="Tracé_16" data-name="Tracé 16" d="M544.619,1369.735a42.083,42.083,0,1,0-42.087-42.086,42.088,42.088,0,0,0,42.087,42.086" transform="translate(-320.585 -205.218)" fill="#5770be"/>
    <path id="Tracé_18" data-name="Tracé 18" d="M359.739,1554.622a42.083,42.083,0,1,0-42.087-42.087,42.089,42.089,0,0,0,42.087,42.087" transform="translate(-317.652 -202.263)" fill="#ffe800"/>
    <path id="Tracé_19" data-name="Tracé 19" d="M930.971,1638.759c5.366-5.669,16.032-6.947,22.663-2.739,7.216,3.713,18.416-.54,21.346-8.1,2.179-7.546,11.042-13.682,18.778-12.978,8.013.02,16.125-9.125,15.144-17.086-1.626-7.6,3.391-17.125,10.62-20.207,7.112-3.7,10.009-15.473,5.452-22.169-4.984-6.044-4.984-16.783,0-22.828,4.557-6.689,1.66-18.462-5.452-22.169-7.229-3.082-12.246-12.6-10.62-20.207.981-7.954-7.038-17.007-15.144-17.08-7.736.7-16.6-5.432-18.778-12.984-2.93-7.559-14.13-11.806-21.346-8.1-6.631,4.208-17.3,2.937-22.663-2.739-6.065-5.313-18.107-3.865-22.664,2.739-3.812,6.762-14,10.627-21.346,8.1-7.782-1.929-17.738,4.945-18.778,12.984-.323,7.855-7.388,15.822-15.144,17.08-7.855,2-13.484,12.714-10.62,20.207,3.364,7.1.8,17.547-5.452,22.169-6.005,5.347-6.005,17.481,0,22.828,6.255,4.622,8.816,15.065,5.452,22.169-2.864,7.493,2.765,18.212,10.62,20.207,7.756,1.258,14.913,9.324,15.144,17.086,1.04,8.04,11,14.914,18.778,12.978,7.348-2.528,17.534,1.337,21.346,8.1,4.557,6.61,16.6,8.059,22.664,2.739" transform="translate(-137.393 -265.263)" fill="#fff" stroke="#000" stroke-linecap="round" stroke-miterlimit="10" stroke-width="1.339"/>
    <path id="Tracé_20" data-name="Tracé 20" d="M1024.81,1586.133c5.1-5.531,15.315-7.138,21.951-3.464,7.25,3.016,17.982-2.469,19.793-10.1.928-7.532,8.177-14.782,15.71-15.71,7.631-1.811,13.116-12.543,10.1-19.792-3.674-6.637-2.074-16.849,3.463-21.952,5.1-6.045,3.233-17.85-3.463-21.952-6.874-3.213-11.522-12.333-10.1-19.793.619-7.822-7.888-16.335-15.71-15.71-7.46,1.423-16.579-3.226-19.793-10.1-4.1-6.7-15.907-8.566-21.951-3.463-5.1,5.537-15.316,7.137-21.952,3.463-7.25-3.009-17.982,2.469-19.793,10.1-.928,7.533-8.177,14.782-15.71,15.71-7.631,1.811-13.116,12.543-10.1,19.793,3.674,6.637,2.074,16.849-3.463,21.952-5.1,6.044-3.233,17.85,3.463,21.952,6.874,3.213,11.522,12.332,10.1,19.792-.619,7.822,7.888,16.336,15.71,15.71,7.46-1.422,16.579,3.226,19.793,10.1,4.1,6.7,15.907,8.567,21.952,3.464" transform="translate(-138.977 -265.263)" fill="#e2001a" stroke="#000" stroke-linecap="round" stroke-miterlimit="10" stroke-width="1.298"/>
    <g id="Groupe_20" data-name="Groupe 20" transform="translate(136.747 886.874)">
      <path id="Tracé_21" data-name="Tracé 21" d="M310.942,1157.237a10.746,10.746,0,1,0-10.746-10.745,10.748,10.748,0,0,0,10.746,10.745" transform="translate(-215.075 -1082.013)" fill="#e2001a"/>
      <path id="Tracé_22" data-name="Tracé 22" d="M225.82,1242.359a10.745,10.745,0,1,0-10.745-10.746,10.748,10.748,0,0,0,10.745,10.746" transform="translate(-215.075 -1082.013)" fill="#009f3b"/>
      <path id="Tracé_23" data-name="Tracé 23" d="M333.987,1134.192a10.745,10.745,0,1,0-10.746-10.745,10.748,10.748,0,0,0,10.746,10.745" transform="translate(-238.075 -1059.013)" fill="#ff010c"/>
      <path id="Tracé_24" data-name="Tracé 24" d="M248.865,1219.314a10.745,10.745,0,1,0-10.745-10.746,10.748,10.748,0,0,0,10.745,10.746" transform="translate(-238.075 -1059.013)" fill="#009f3b"/>
      <path id="Tracé_25" data-name="Tracé 25" d="M388.61,1079.582a10.762,10.762,0,1,0-10.759-10.758A10.758,10.758,0,0,0,388.61,1079.582Z" transform="translate(-239.075 -1058.013)" fill="none" stroke="#000" stroke-width="0.612"/>
      <path id="Tracé_26" data-name="Tracé 26" d="M411.655,1056.537a10.762,10.762,0,1,0-10.759-10.758A10.758,10.758,0,0,0,411.655,1056.537Z" transform="translate(-262.075 -1035.013)" fill="none" stroke="#000" stroke-width="0.612"/>
      <path id="Tracé_27" data-name="Tracé 27" d="M358.151,1110.028a10.745,10.745,0,1,0-10.745-10.746,10.748,10.748,0,0,0,10.745,10.746" transform="translate(-262.075 -1035.013)" fill="#ff010c"/>
      <path id="Tracé_28" data-name="Tracé 28" d="M273.03,1195.149a10.746,10.746,0,1,0-10.746-10.745,10.748,10.748,0,0,0,10.746,10.745" transform="translate(-262.075 -1035.013)" fill="#009f3b"/>
    </g>
    <path id="Tracé_29" data-name="Tracé 29" d="M229.751,990.062a7.65,7.65,0,0,1,9.546-.513c2.7,2.022,7.533,1.232,9.436-1.539a7.652,7.652,0,0,1,9.213-2.548c3.086,1.386,7.629-.434,8.879-3.547a7.653,7.653,0,0,1,8.441-4.481c3.271.719,7.362-2.066,7.91-5.372a7.647,7.647,0,0,1,7.283-6.191c3.346,0,6.744-3.592,6.573-6.942a7.649,7.649,0,0,1,5.793-7.6c3.3-.759,5.823-4.955,4.933-8.191a7.659,7.659,0,0,1,4.021-8.673c3.039-1.4,4.617-6.095,3.052-9.059a7.65,7.65,0,0,1,2.043-9.336c2.666-2.043,3.192-6.915,1.026-9.506a7.66,7.66,0,0,1,0-9.559c2.166-2.592,1.64-7.463-1.026-9.507a7.65,7.65,0,0,1-2.043-9.335c1.565-2.964-.013-7.656-3.052-9.064a7.651,7.651,0,0,1-4.021-8.669c.89-3.236-1.636-7.432-4.933-8.191a7.649,7.649,0,0,1-5.793-7.6c.171-3.35-3.187-6.906-6.573-6.941a7.644,7.644,0,0,1-7.283-6.192c-.548-3.306-4.639-6.09-7.91-5.371a7.655,7.655,0,0,1-8.441-4.482c-1.25-3.117-5.793-4.933-8.879-3.547a7.652,7.652,0,0,1-9.213-2.548c-1.9-2.771-6.74-3.556-9.436-1.534a7.655,7.655,0,0,1-9.546-.518c-2.482-2.3-7.371-2.034-9.546.518a7.659,7.659,0,0,1-9.436,1.534c-2.881-1.723-7.6-.416-9.213,2.548a7.664,7.664,0,0,1-8.88,3.547c-3.192-1.056-7.515,1.237-8.44,4.482a7.661,7.661,0,0,1-7.911,5.371c-3.341-.342-7.073,2.828-7.283,6.192a7.658,7.658,0,0,1-6.573,6.941c-3.341.377-6.3,4.271-5.792,7.6a7.667,7.667,0,0,1-4.933,8.191,7.173,7.173,0,0,0-4.021,8.669,7.668,7.668,0,0,1-3.052,9.064,7.175,7.175,0,0,0-2.044,9.335A7.661,7.661,0,0,1,141.6,897c-2.429,2.3-2.429,7.257,0,9.559a7.659,7.659,0,0,1,1.026,9.506,7.177,7.177,0,0,0,2.044,9.336,7.665,7.665,0,0,1,3.052,9.059c-1.224,3.144.837,7.586,4.021,8.673a7.667,7.667,0,0,1,4.933,8.191c-.513,3.333,2.451,7.226,5.792,7.6a7.662,7.662,0,0,1,6.573,6.942c.21,3.363,3.942,6.533,7.283,6.191a7.668,7.668,0,0,1,7.911,5.372c.925,3.24,5.248,5.538,8.44,4.481a7.664,7.664,0,0,1,8.88,3.547c1.609,2.969,6.332,4.271,9.213,2.548a7.653,7.653,0,0,1,9.436,1.539c2.175,2.548,7.064,2.811,9.546.513" transform="translate(-125.328 -151.329)" fill="#f6a800" stroke="#000" stroke-linecap="round" stroke-miterlimit="10" stroke-width="0.567"/>
    <g id="Groupe_21" data-name="Groupe 21" transform="translate(1292.995 961.367)">
      <path id="Tracé_30" data-name="Tracé 30" d="M1399.182,1184.072a11.611,11.611,0,1,0-11.611-11.611,11.611,11.611,0,0,0,11.611,11.611" transform="translate(-1387.571 -1160.844)" fill="#f6a800"/>
      <path id="Tracé_31" data-name="Tracé 31" d="M1424.082,1159.179a11.61,11.61,0,1,0-11.611-11.611,11.611,11.611,0,0,0,11.611,11.611" transform="translate(-1412.381 -1135.844)" fill="#f6a800"/>
      <path id="Tracé_32" data-name="Tracé 32" d="M1450.188,1133.066a11.611,11.611,0,1,0-11.611-11.611,11.612,11.612,0,0,0,11.611,11.611" transform="translate(-1438.381 -1109.844)" fill="#f6a800"/>
    </g>
    <path id="Tracé_33" data-name="Tracé 33" d="M1643.622,1146.637c6.6-6.938,19.476-9.864,28.448-6.476,9.912,2,22.5-8.024,22.807-18.212-1.313-9.474,4.442-21.405,12.676-26.284,7.749-6.508,7.749-22.678,0-29.186-8.234-4.879-13.989-16.81-12.676-26.285-.194-10.074-12.895-20.213-22.807-18.2-8.972,3.38-21.851.454-28.448-6.484-8.089-6.12-23.845-2.529-28.449,6.484-2.958,9.134-13.325,17.425-22.808,18.2-9.839,2.513-16.842,17.037-12.675,26.285,5.308,8,5.308,21.186,0,29.186-4.167,9.248,2.836,23.772,12.675,26.284,9.6.892,19.85,9.07,22.808,18.212,4.6,9.005,20.36,12.595,28.449,6.476" transform="translate(-267.328 -195.398)" fill="none" stroke="#ff010c" stroke-linecap="round" stroke-miterlimit="10" stroke-width="1.597"/>
    <g id="green_dot">
      <path id="Tracé_34" data-name="Tracé 34" d="M1681.885,842.307a75.752,75.752,0,1,0-75.752-75.752,75.752,75.752,0,0,0,75.752,75.752" transform="translate(-150.328 -153.367)" fill="#009f3b"/>
      <path id="Tracé_35" data-name="Tracé 35" d="M1681.885,804.431a37.876,37.876,0,1,0-37.873-37.872,37.87,37.87,0,0,0,37.873,37.872" transform="translate(-150.328 -153.302)"/>
      <path id="Tracé_36" data-name="Tracé 36" d="M1658.662,846.754a103.421,103.421,0,1,0-103.422-103.421,103.421,103.421,0,0,0,103.422,103.421" transform="translate(-127.106 -130.198)" fill="none" stroke="#ffed00" stroke-linecap="round" stroke-linejoin="round" stroke-width="4" stroke-dasharray="0 10"/>
    </g>
    <g id="Circle">
      <ellipse id="big" cx="614.662" cy="623.662" rx="614.662" ry="623.662" transform="translate(198.5 29.19)" fill="none" stroke="#000" stroke-miterlimit="10" stroke-width="1"/>
      <circle id="green" cx="387.559" cy="387.559" r="387.559" transform="translate(437.872 264.198)" fill="none" stroke="#009f3b" stroke-width="10" stroke-dasharray="1 3"/>
      <circle id="black" cx="236.099" cy="236.099" r="236.099" transform="translate(589.391 416.032)" fill="none" stroke="#000" stroke-miterlimit="10" stroke-width="15" stroke-dasharray="2 4"/>
      <g id="blue" transform="translate(531.368 358.366)">
        <line id="Ligne_364" data-name="Ligne 364" x2="9.142" y2="25.116" transform="translate(289.699)" fill="none" stroke="#315ca4" stroke-width="3"/>
        <line id="Ligne_365" data-name="Ligne 365" x2="10.013" y2="24.782" transform="translate(279.446 0.325)" fill="none" stroke="#315ca4" stroke-width="3"/>
        <line id="Ligne_366" data-name="Ligne 366" x2="10.871" y2="24.417" transform="translate(269.21 1.007)" fill="none" stroke="#315ca4" stroke-width="3"/>
        <line id="Ligne_367" data-name="Ligne 367" x2="11.717" y2="24.023" transform="translate(259.004 2.046)" fill="none" stroke="#315ca4" stroke-width="3"/>
        <line id="Ligne_368" data-name="Ligne 368" x2="12.548" y2="23.6" transform="translate(248.841 3.44)" fill="none" stroke="#315ca4" stroke-width="3"/>
        <line id="Ligne_369" data-name="Ligne 369" x2="13.364" y2="23.147" transform="translate(238.733 5.189)" fill="none" stroke="#315ca4" stroke-width="3"/>
        <line id="Ligne_370" data-name="Ligne 370" x2="14.164" y2="22.667" transform="translate(228.692 7.289)" fill="none" stroke="#315ca4" stroke-width="3"/>
        <line id="Ligne_371" data-name="Ligne 371" x2="14.946" y2="22.159" transform="translate(218.73 9.738)" fill="none" stroke="#315ca4" stroke-width="3"/>
        <line id="Ligne_372" data-name="Ligne 372" x2="15.71" y2="21.624" transform="translate(208.859 12.534)" fill="none" stroke="#315ca4" stroke-width="3"/>
        <line id="Ligne_373" data-name="Ligne 373" x2="16.456" y2="21.062" transform="translate(199.093 15.672)" fill="none" stroke="#315ca4" stroke-width="3"/>
        <line id="Ligne_374" data-name="Ligne 374" x2="17.181" y2="20.475" transform="translate(189.441 19.149)" fill="none" stroke="#315ca4" stroke-width="3"/>
        <line id="Ligne_375" data-name="Ligne 375" x2="17.885" y2="19.863" transform="translate(179.917 22.961)" fill="none" stroke="#315ca4" stroke-width="3"/>
        <line id="Ligne_376" data-name="Ligne 376" x2="18.567" y2="19.227" transform="translate(170.532 27.103)" fill="none" stroke="#315ca4" stroke-width="3"/>
        <line id="Ligne_377" data-name="Ligne 377" x2="19.227" y2="18.567" transform="translate(161.297 31.57)" fill="none" stroke="#315ca4" stroke-width="3"/>
        <line id="Ligne_378" data-name="Ligne 378" x2="19.863" y2="17.885" transform="translate(152.224 36.356)" fill="none" stroke="#315ca4" stroke-width="3"/>
        <line id="Ligne_379" data-name="Ligne 379" x2="20.475" y2="17.181" transform="translate(143.323 41.457)" fill="none" stroke="#315ca4" stroke-width="3"/>
        <line id="Ligne_380" data-name="Ligne 380" x2="21.062" y2="16.456" transform="translate(134.606 46.864)" fill="none" stroke="#315ca4" stroke-width="3"/>
        <line id="Ligne_381" data-name="Ligne 381" x2="21.624" y2="15.71" transform="translate(126.082 52.573)" fill="none" stroke="#315ca4" stroke-width="3"/>
        <line id="Ligne_382" data-name="Ligne 382" x2="22.159" y2="14.946" transform="translate(117.763 58.576)" fill="none" stroke="#315ca4" stroke-width="3"/>
        <line id="Ligne_383" data-name="Ligne 383" x2="22.667" y2="14.164" transform="translate(109.659 64.865)" fill="none" stroke="#315ca4" stroke-width="3"/>
        <line id="Ligne_384" data-name="Ligne 384" x2="23.147" y2="13.364" transform="translate(101.779 71.434)" fill="none" stroke="#315ca4" stroke-width="3"/>
        <line id="Ligne_385" data-name="Ligne 385" x2="23.6" y2="12.548" transform="translate(94.133 78.273)" fill="none" stroke="#315ca4" stroke-width="3"/>
        <line id="Ligne_386" data-name="Ligne 386" x2="24.023" y2="11.717" transform="translate(86.731 85.375)" fill="none" stroke="#315ca4" stroke-width="3"/>
        <line id="Ligne_387" data-name="Ligne 387" x2="24.417" y2="10.871" transform="translate(79.58 92.731)" fill="none" stroke="#315ca4" stroke-width="3"/>
        <line id="Ligne_388" data-name="Ligne 388" x2="24.782" y2="10.013" transform="translate(72.691 100.332)" fill="none" stroke="#315ca4" stroke-width="3"/>
        <line id="Ligne_389" data-name="Ligne 389" x2="25.116" y2="9.142" transform="translate(66.072 108.169)" fill="none" stroke="#315ca4" stroke-width="3"/>
        <line id="Ligne_390" data-name="Ligne 390" x2="25.42" y2="8.259" transform="translate(59.729 116.232)" fill="none" stroke="#315ca4" stroke-width="3"/>
        <line id="Ligne_391" data-name="Ligne 391" x2="25.693" y2="7.367" transform="translate(53.673 124.512)" fill="none" stroke="#315ca4" stroke-width="3"/>
        <line id="Ligne_392" data-name="Ligne 392" x2="25.934" y2="6.466" transform="translate(47.908 132.998)" fill="none" stroke="#315ca4" stroke-width="3"/>
        <line id="Ligne_393" data-name="Ligne 393" x2="26.144" y2="5.557" transform="translate(42.444 141.68)" fill="none" stroke="#315ca4" stroke-width="3"/>
        <line id="Ligne_394" data-name="Ligne 394" x2="26.322" y2="4.641" transform="translate(37.286 150.547)" fill="none" stroke="#315ca4" stroke-width="3"/>
        <line id="Ligne_395" data-name="Ligne 395" x2="26.468" y2="3.72" transform="translate(32.44 159.589)" fill="none" stroke="#315ca4" stroke-width="3"/>
        <line id="Ligne_396" data-name="Ligne 396" x2="26.582" y2="2.794" transform="translate(27.913 168.795)" fill="none" stroke="#315ca4" stroke-width="3"/>
        <line id="Ligne_397" data-name="Ligne 397" x2="26.663" y2="1.864" transform="translate(23.71 178.153)" fill="none" stroke="#315ca4" stroke-width="3"/>
        <line id="Ligne_398" data-name="Ligne 398" x2="26.712" y2="0.933" transform="translate(19.836 187.652)" fill="none" stroke="#315ca4" stroke-width="3"/>
        <line id="Ligne_399" data-name="Ligne 399" x2="26.728" transform="translate(16.296 197.28)" fill="none" stroke="#315ca4" stroke-width="3"/>
        <line id="Ligne_400" data-name="Ligne 400" y1="0.933" x2="26.712" transform="translate(13.094 206.093)" fill="none" stroke="#315ca4" stroke-width="3"/>
        <line id="Ligne_401" data-name="Ligne 401" y1="1.864" x2="26.663" transform="translate(10.234 215.013)" fill="none" stroke="#315ca4" stroke-width="3"/>
        <line id="Ligne_402" data-name="Ligne 402" y1="2.794" x2="26.582" transform="translate(7.72 224.03)" fill="none" stroke="#315ca4" stroke-width="3"/>
        <line id="Ligne_403" data-name="Ligne 403" y1="3.72" x2="26.468" transform="translate(5.555 233.131)" fill="none" stroke="#315ca4" stroke-width="3"/>
        <line id="Ligne_404" data-name="Ligne 404" y1="4.641" x2="26.322" transform="translate(3.74 242.306)" fill="none" stroke="#315ca4" stroke-width="3"/>
        <line id="Ligne_405" data-name="Ligne 405" y1="5.557" x2="26.144" transform="translate(2.279 251.545)" fill="none" stroke="#315ca4" stroke-width="3"/>
        <line id="Ligne_406" data-name="Ligne 406" y1="6.466" x2="25.934" transform="translate(1.174 260.834)" fill="none" stroke="#315ca4" stroke-width="3"/>
        <line id="Ligne_407" data-name="Ligne 407" y1="7.367" x2="25.693" transform="translate(0.425 270.164)" fill="none" stroke="#315ca4" stroke-width="3"/>
        <line id="Ligne_408" data-name="Ligne 408" y1="8.259" x2="25.42" transform="translate(0.033 279.523)" fill="none" stroke="#315ca4" stroke-width="3"/>
        <line id="Ligne_409" data-name="Ligne 409" y1="9.142" x2="25.116" transform="translate(0 288.9)" fill="none" stroke="#315ca4" stroke-width="3"/>
        <line id="Ligne_410" data-name="Ligne 410" y1="10.013" x2="24.782" transform="translate(0.325 298.282)" fill="none" stroke="#315ca4" stroke-width="3"/>
        <line id="Ligne_411" data-name="Ligne 411" y1="10.871" x2="24.417" transform="translate(1.007 307.659)" fill="none" stroke="#315ca4" stroke-width="3"/>
        <line id="Ligne_412" data-name="Ligne 412" y1="11.717" x2="24.023" transform="translate(2.046 317.019)" fill="none" stroke="#315ca4" stroke-width="3"/>
        <line id="Ligne_413" data-name="Ligne 413" y1="12.548" x2="23.6" transform="translate(3.44 326.351)" fill="none" stroke="#315ca4" stroke-width="3"/>
        <line id="Ligne_414" data-name="Ligne 414" y1="13.364" x2="23.147" transform="translate(5.189 335.644)" fill="none" stroke="#315ca4" stroke-width="3"/>
        <line id="Ligne_415" data-name="Ligne 415" y1="14.164" x2="22.667" transform="translate(7.289 344.885)" fill="none" stroke="#315ca4" stroke-width="3"/>
        <line id="Ligne_416" data-name="Ligne 416" y1="14.946" x2="22.159" transform="translate(9.738 354.065)" fill="none" stroke="#315ca4" stroke-width="3"/>
        <line id="Ligne_417" data-name="Ligne 417" y1="15.71" x2="21.624" transform="translate(12.534 363.171)" fill="none" stroke="#315ca4" stroke-width="3"/>
        <line id="Ligne_418" data-name="Ligne 418" y1="16.456" x2="21.062" transform="translate(15.672 372.192)" fill="none" stroke="#315ca4" stroke-width="3"/>
        <line id="Ligne_419" data-name="Ligne 419" y1="17.181" x2="20.475" transform="translate(19.149 381.119)" fill="none" stroke="#315ca4" stroke-width="3"/>
        <line id="Ligne_420" data-name="Ligne 420" y1="17.885" x2="19.863" transform="translate(22.961 389.938)" fill="none" stroke="#315ca4" stroke-width="3"/>
        <line id="Ligne_421" data-name="Ligne 421" y1="18.567" x2="19.227" transform="translate(27.103 398.641)" fill="none" stroke="#315ca4" stroke-width="3"/>
        <line id="Ligne_422" data-name="Ligne 422" y1="19.227" x2="18.567" transform="translate(31.57 407.217)" fill="none" stroke="#315ca4" stroke-width="3"/>
        <line id="Ligne_423" data-name="Ligne 423" y1="19.863" x2="17.885" transform="translate(36.356 415.654)" fill="none" stroke="#315ca4" stroke-width="3"/>
        <line id="Ligne_424" data-name="Ligne 424" y1="20.475" x2="17.181" transform="translate(41.457 423.942)" fill="none" stroke="#315ca4" stroke-width="3"/>
        <line id="Ligne_425" data-name="Ligne 425" y1="21.062" x2="16.456" transform="translate(46.864 432.073)" fill="none" stroke="#315ca4" stroke-width="3"/>
        <line id="Ligne_426" data-name="Ligne 426" y1="21.624" x2="15.71" transform="translate(52.573 440.035)" fill="none" stroke="#315ca4" stroke-width="3"/>
        <line id="Ligne_427" data-name="Ligne 427" y1="22.159" x2="14.946" transform="translate(58.576 447.818)" fill="none" stroke="#315ca4" stroke-width="3"/>
        <line id="Ligne_428" data-name="Ligne 428" y1="22.667" x2="14.164" transform="translate(64.865 455.415)" fill="none" stroke="#315ca4" stroke-width="3"/>
        <line id="Ligne_429" data-name="Ligne 429" y1="23.147" x2="13.364" transform="translate(71.434 462.814)" fill="none" stroke="#315ca4" stroke-width="3"/>
        <line id="Ligne_430" data-name="Ligne 430" y1="23.6" x2="12.548" transform="translate(78.273 470.008)" fill="none" stroke="#315ca4" stroke-width="3"/>
        <line id="Ligne_431" data-name="Ligne 431" y1="24.023" x2="11.717" transform="translate(85.375 476.987)" fill="none" stroke="#315ca4" stroke-width="3"/>
        <line id="Ligne_432" data-name="Ligne 432" y1="24.417" x2="10.871" transform="translate(92.731 483.743)" fill="none" stroke="#315ca4" stroke-width="3"/>
        <line id="Ligne_433" data-name="Ligne 433" y1="24.782" x2="10.013" transform="translate(100.332 490.267)" fill="none" stroke="#315ca4" stroke-width="3"/>
        <line id="Ligne_434" data-name="Ligne 434" y1="25.116" x2="9.142" transform="translate(108.169 496.553)" fill="none" stroke="#315ca4" stroke-width="3"/>
        <line id="Ligne_435" data-name="Ligne 435" y1="25.42" x2="8.259" transform="translate(116.232 502.591)" fill="none" stroke="#315ca4" stroke-width="3"/>
        <line id="Ligne_436" data-name="Ligne 436" y1="25.693" x2="7.367" transform="translate(124.512 508.375)" fill="none" stroke="#315ca4" stroke-width="3"/>
        <line id="Ligne_437" data-name="Ligne 437" y1="25.934" x2="6.466" transform="translate(132.998 513.898)" fill="none" stroke="#315ca4" stroke-width="3"/>
        <line id="Ligne_438" data-name="Ligne 438" y1="26.144" x2="5.557" transform="translate(141.68 519.152)" fill="none" stroke="#315ca4" stroke-width="3"/>
        <line id="Ligne_439" data-name="Ligne 439" y1="26.322" x2="4.641" transform="translate(150.547 524.133)" fill="none" stroke="#315ca4" stroke-width="3"/>
        <line id="Ligne_440" data-name="Ligne 440" y1="26.468" x2="3.72" transform="translate(159.589 528.832)" fill="none" stroke="#315ca4" stroke-width="3"/>
        <line id="Ligne_441" data-name="Ligne 441" y1="26.582" x2="2.794" transform="translate(168.795 533.246)" fill="none" stroke="#315ca4" stroke-width="3"/>
        <line id="Ligne_442" data-name="Ligne 442" y1="26.663" x2="1.864" transform="translate(178.153 537.367)" fill="none" stroke="#315ca4" stroke-width="3"/>
        <line id="Ligne_443" data-name="Ligne 443" y1="26.712" x2="0.933" transform="translate(187.652 541.193)" fill="none" stroke="#315ca4" stroke-width="3"/>
        <line id="Ligne_444" data-name="Ligne 444" y1="26.728" transform="translate(197.28 544.716)" fill="none" stroke="#315ca4" stroke-width="3"/>
        <line id="Ligne_445" data-name="Ligne 445" x1="0.933" y1="26.712" transform="translate(206.093 547.934)" fill="none" stroke="#315ca4" stroke-width="3"/>
        <line id="Ligne_446" data-name="Ligne 446" x1="1.864" y1="26.663" transform="translate(215.013 550.843)" fill="none" stroke="#315ca4" stroke-width="3"/>
        <line id="Ligne_447" data-name="Ligne 447" x1="2.794" y1="26.582" transform="translate(224.03 553.439)" fill="none" stroke="#315ca4" stroke-width="3"/>
        <line id="Ligne_448" data-name="Ligne 448" x1="3.72" y1="26.468" transform="translate(233.131 555.718)" fill="none" stroke="#315ca4" stroke-width="3"/>
        <line id="Ligne_449" data-name="Ligne 449" x1="4.641" y1="26.322" transform="translate(242.306 557.678)" fill="none" stroke="#315ca4" stroke-width="3"/>
        <line id="Ligne_450" data-name="Ligne 450" x1="5.557" y1="26.144" transform="translate(251.545 559.317)" fill="none" stroke="#315ca4" stroke-width="3"/>
        <line id="Ligne_451" data-name="Ligne 451" x1="6.466" y1="25.934" transform="translate(260.834 560.632)" fill="none" stroke="#315ca4" stroke-width="3"/>
        <line id="Ligne_452" data-name="Ligne 452" x1="7.367" y1="25.693" transform="translate(270.164 561.623)" fill="none" stroke="#315ca4" stroke-width="3"/>
        <line id="Ligne_453" data-name="Ligne 453" x1="8.259" y1="25.42" transform="translate(279.523 562.287)" fill="none" stroke="#315ca4" stroke-width="3"/>
        <line id="Ligne_454" data-name="Ligne 454" x1="9.142" y1="25.116" transform="translate(288.899 562.624)" fill="none" stroke="#315ca4" stroke-width="3"/>
        <line id="Ligne_455" data-name="Ligne 455" x1="10.013" y1="24.782" transform="translate(298.282 562.634)" fill="none" stroke="#315ca4" stroke-width="3"/>
        <line id="Ligne_456" data-name="Ligne 456" x1="10.871" y1="24.417" transform="translate(307.659 562.316)" fill="none" stroke="#315ca4" stroke-width="3"/>
        <line id="Ligne_457" data-name="Ligne 457" x1="11.717" y1="24.023" transform="translate(317.019 561.672)" fill="none" stroke="#315ca4" stroke-width="3"/>
        <line id="Ligne_458" data-name="Ligne 458" x1="12.548" y1="23.6" transform="translate(326.351 560.701)" fill="none" stroke="#315ca4" stroke-width="3"/>
        <line id="Ligne_459" data-name="Ligne 459" x1="13.364" y1="23.147" transform="translate(335.644 559.404)" fill="none" stroke="#315ca4" stroke-width="3"/>
        <line id="Ligne_460" data-name="Ligne 460" x1="14.164" y1="22.667" transform="translate(344.885 557.785)" fill="none" stroke="#315ca4" stroke-width="3"/>
        <line id="Ligne_461" data-name="Ligne 461" x1="14.946" y1="22.159" transform="translate(354.065 555.844)" fill="none" stroke="#315ca4" stroke-width="3"/>
        <line id="Ligne_462" data-name="Ligne 462" x1="15.71" y1="21.624" transform="translate(363.171 553.583)" fill="none" stroke="#315ca4" stroke-width="3"/>
        <line id="Ligne_463" data-name="Ligne 463" x1="16.456" y1="21.062" transform="translate(372.192 551.007)" fill="none" stroke="#315ca4" stroke-width="3"/>
        <line id="Ligne_464" data-name="Ligne 464" x1="17.181" y1="20.475" transform="translate(381.118 548.117)" fill="none" stroke="#315ca4" stroke-width="3"/>
        <line id="Ligne_465" data-name="Ligne 465" x1="17.885" y1="19.863" transform="translate(389.938 544.917)" fill="none" stroke="#315ca4" stroke-width="3"/>
        <line id="Ligne_466" data-name="Ligne 466" x1="18.567" y1="19.227" transform="translate(398.641 541.411)" fill="none" stroke="#315ca4" stroke-width="3"/>
        <line id="Ligne_467" data-name="Ligne 467" x1="19.227" y1="18.567" transform="translate(407.216 537.604)" fill="none" stroke="#315ca4" stroke-width="3"/>
        <line id="Ligne_468" data-name="Ligne 468" x1="19.863" y1="17.885" transform="translate(415.654 533.5)" fill="none" stroke="#315ca4" stroke-width="3"/>
        <line id="Ligne_469" data-name="Ligne 469" x1="20.475" y1="17.181" transform="translate(423.942 529.103)" fill="none" stroke="#315ca4" stroke-width="3"/>
        <line id="Ligne_470" data-name="Ligne 470" x1="21.062" y1="16.456" transform="translate(432.073 524.421)" fill="none" stroke="#315ca4" stroke-width="3"/>
        <line id="Ligne_471" data-name="Ligne 471" x1="21.624" y1="15.71" transform="translate(440.035 519.457)" fill="none" stroke="#315ca4" stroke-width="3"/>
        <line id="Ligne_472" data-name="Ligne 472" x1="22.159" y1="14.946" transform="translate(447.818 514.219)" fill="none" stroke="#315ca4" stroke-width="3"/>
        <line id="Ligne_473" data-name="Ligne 473" x1="22.667" y1="14.164" transform="translate(455.415 508.712)" fill="none" stroke="#315ca4" stroke-width="3"/>
        <line id="Ligne_474" data-name="Ligne 474" x1="23.147" y1="13.364" transform="translate(462.814 502.943)" fill="none" stroke="#315ca4" stroke-width="3"/>
        <line id="Ligne_475" data-name="Ligne 475" x1="23.6" y1="12.548" transform="translate(470.008 496.919)" fill="none" stroke="#315ca4" stroke-width="3"/>
        <line id="Ligne_476" data-name="Ligne 476" x1="24.023" y1="11.717" transform="translate(476.987 490.649)" fill="none" stroke="#315ca4" stroke-width="3"/>
        <line id="Ligne_477" data-name="Ligne 477" x1="24.417" y1="10.871" transform="translate(483.743 484.138)" fill="none" stroke="#315ca4" stroke-width="3"/>
        <line id="Ligne_478" data-name="Ligne 478" x1="24.782" y1="10.013" transform="translate(490.267 477.396)" fill="none" stroke="#315ca4" stroke-width="3"/>
        <line id="Ligne_479" data-name="Ligne 479" x1="25.116" y1="9.142" transform="translate(496.553 470.43)" fill="none" stroke="#315ca4" stroke-width="3"/>
        <line id="Ligne_480" data-name="Ligne 480" x1="25.42" y1="8.259" transform="translate(502.591 463.249)" fill="none" stroke="#315ca4" stroke-width="3"/>
        <line id="Ligne_481" data-name="Ligne 481" x1="25.693" y1="7.367" transform="translate(508.375 455.861)" fill="none" stroke="#315ca4" stroke-width="3"/>
        <line id="Ligne_482" data-name="Ligne 482" x1="25.934" y1="6.466" transform="translate(513.898 448.277)" fill="none" stroke="#315ca4" stroke-width="3"/>
        <line id="Ligne_483" data-name="Ligne 483" x1="26.144" y1="5.557" transform="translate(519.152 440.504)" fill="none" stroke="#315ca4" stroke-width="3"/>
        <line id="Ligne_484" data-name="Ligne 484" x1="26.322" y1="4.641" transform="translate(524.133 432.552)" fill="none" stroke="#315ca4" stroke-width="3"/>
        <line id="Ligne_485" data-name="Ligne 485" x1="26.468" y1="3.72" transform="translate(528.832 424.432)" fill="none" stroke="#315ca4" stroke-width="3"/>
        <line id="Ligne_486" data-name="Ligne 486" x1="26.582" y1="2.794" transform="translate(533.246 416.152)" fill="none" stroke="#315ca4" stroke-width="3"/>
        <line id="Ligne_487" data-name="Ligne 487" x1="26.663" y1="1.864" transform="translate(537.367 407.723)" fill="none" stroke="#315ca4" stroke-width="3"/>
        <line id="Ligne_488" data-name="Ligne 488" x1="26.712" y1="0.933" transform="translate(541.192 399.156)" fill="none" stroke="#315ca4" stroke-width="3"/>
        <line id="Ligne_489" data-name="Ligne 489" x1="26.728" transform="translate(544.716 390.461)" fill="none" stroke="#315ca4" stroke-width="3"/>
        <line id="Ligne_490" data-name="Ligne 490" x1="26.712" y2="0.933" transform="translate(547.934 380.714)" fill="none" stroke="#315ca4" stroke-width="3"/>
        <line id="Ligne_491" data-name="Ligne 491" x1="26.663" y2="1.864" transform="translate(550.843 370.863)" fill="none" stroke="#315ca4" stroke-width="3"/>
        <line id="Ligne_492" data-name="Ligne 492" x1="26.582" y2="2.794" transform="translate(553.439 360.917)" fill="none" stroke="#315ca4" stroke-width="3"/>
        <line id="Ligne_493" data-name="Ligne 493" x1="26.468" y2="3.72" transform="translate(555.718 350.89)" fill="none" stroke="#315ca4" stroke-width="3"/>
        <line id="Ligne_494" data-name="Ligne 494" x1="26.322" y2="4.641" transform="translate(557.678 340.793)" fill="none" stroke="#315ca4" stroke-width="3"/>
        <line id="Ligne_495" data-name="Ligne 495" x1="26.144" y2="5.557" transform="translate(559.317 330.639)" fill="none" stroke="#315ca4" stroke-width="3"/>
        <line id="Ligne_496" data-name="Ligne 496" x1="25.934" y2="6.466" transform="translate(560.632 320.44)" fill="none" stroke="#315ca4" stroke-width="3"/>
        <line id="Ligne_497" data-name="Ligne 497" x1="25.693" y2="7.367" transform="translate(561.623 310.209)" fill="none" stroke="#315ca4" stroke-width="3"/>
        <line id="Ligne_498" data-name="Ligne 498" x1="25.42" y2="8.259" transform="translate(562.287 299.958)" fill="none" stroke="#315ca4" stroke-width="3"/>
        <line id="Ligne_499" data-name="Ligne 499" x1="25.116" y2="9.142" transform="translate(562.624 289.699)" fill="none" stroke="#315ca4" stroke-width="3"/>
        <line id="Ligne_500" data-name="Ligne 500" x1="24.782" y2="10.013" transform="translate(562.634 279.446)" fill="none" stroke="#315ca4" stroke-width="3"/>
        <line id="Ligne_501" data-name="Ligne 501" x1="24.417" y2="10.871" transform="translate(562.316 269.21)" fill="none" stroke="#315ca4" stroke-width="3"/>
        <line id="Ligne_502" data-name="Ligne 502" x1="24.023" y2="11.717" transform="translate(561.672 259.004)" fill="none" stroke="#315ca4" stroke-width="3"/>
        <line id="Ligne_503" data-name="Ligne 503" x1="23.6" y2="12.548" transform="translate(560.701 248.841)" fill="none" stroke="#315ca4" stroke-width="3"/>
        <line id="Ligne_504" data-name="Ligne 504" x1="23.147" y2="13.364" transform="translate(559.404 238.733)" fill="none" stroke="#315ca4" stroke-width="3"/>
        <line id="Ligne_505" data-name="Ligne 505" x1="22.667" y2="14.164" transform="translate(557.785 228.692)" fill="none" stroke="#315ca4" stroke-width="3"/>
        <line id="Ligne_506" data-name="Ligne 506" x1="22.159" y2="14.946" transform="translate(555.844 218.73)" fill="none" stroke="#315ca4" stroke-width="3"/>
        <line id="Ligne_507" data-name="Ligne 507" x1="21.624" y2="15.71" transform="translate(553.583 208.859)" fill="none" stroke="#315ca4" stroke-width="3"/>
        <line id="Ligne_508" data-name="Ligne 508" x1="21.062" y2="16.456" transform="translate(551.007 199.093)" fill="none" stroke="#315ca4" stroke-width="3"/>
        <line id="Ligne_509" data-name="Ligne 509" x1="20.475" y2="17.181" transform="translate(548.117 189.441)" fill="none" stroke="#315ca4" stroke-width="3"/>
        <line id="Ligne_510" data-name="Ligne 510" x1="19.863" y2="17.885" transform="translate(544.917 179.917)" fill="none" stroke="#315ca4" stroke-width="3"/>
        <line id="Ligne_511" data-name="Ligne 511" x1="19.227" y2="18.567" transform="translate(541.411 170.532)" fill="none" stroke="#315ca4" stroke-width="3"/>
        <line id="Ligne_512" data-name="Ligne 512" x1="18.567" y2="19.227" transform="translate(537.604 161.297)" fill="none" stroke="#315ca4" stroke-width="3"/>
        <line id="Ligne_513" data-name="Ligne 513" x1="17.885" y2="19.863" transform="translate(533.5 152.224)" fill="none" stroke="#315ca4" stroke-width="3"/>
        <line id="Ligne_514" data-name="Ligne 514" x1="17.181" y2="20.475" transform="translate(529.103 143.323)" fill="none" stroke="#315ca4" stroke-width="3"/>
        <line id="Ligne_515" data-name="Ligne 515" x1="16.456" y2="21.062" transform="translate(524.421 134.606)" fill="none" stroke="#315ca4" stroke-width="3"/>
        <line id="Ligne_516" data-name="Ligne 516" x1="15.71" y2="21.624" transform="translate(519.457 126.082)" fill="none" stroke="#315ca4" stroke-width="3"/>
        <line id="Ligne_517" data-name="Ligne 517" x1="14.946" y2="22.159" transform="translate(514.219 117.763)" fill="none" stroke="#315ca4" stroke-width="3"/>
        <line id="Ligne_518" data-name="Ligne 518" x1="14.164" y2="22.667" transform="translate(508.712 109.659)" fill="none" stroke="#315ca4" stroke-width="3"/>
        <line id="Ligne_519" data-name="Ligne 519" x1="13.364" y2="23.147" transform="translate(502.943 101.779)" fill="none" stroke="#315ca4" stroke-width="3"/>
        <line id="Ligne_520" data-name="Ligne 520" x1="12.548" y2="23.6" transform="translate(496.919 94.133)" fill="none" stroke="#315ca4" stroke-width="3"/>
        <line id="Ligne_521" data-name="Ligne 521" x1="11.717" y2="24.023" transform="translate(490.649 86.731)" fill="none" stroke="#315ca4" stroke-width="3"/>
        <line id="Ligne_522" data-name="Ligne 522" x1="10.871" y2="24.417" transform="translate(484.138 79.58)" fill="none" stroke="#315ca4" stroke-width="3"/>
        <line id="Ligne_523" data-name="Ligne 523" x1="10.013" y2="24.782" transform="translate(477.396 72.691)" fill="none" stroke="#315ca4" stroke-width="3"/>
        <line id="Ligne_524" data-name="Ligne 524" x1="9.142" y2="25.116" transform="translate(470.43 66.072)" fill="none" stroke="#315ca4" stroke-width="3"/>
        <line id="Ligne_525" data-name="Ligne 525" x1="8.259" y2="25.42" transform="translate(463.249 59.729)" fill="none" stroke="#315ca4" stroke-width="3"/>
        <line id="Ligne_526" data-name="Ligne 526" x1="7.367" y2="25.693" transform="translate(455.861 53.673)" fill="none" stroke="#315ca4" stroke-width="3"/>
        <line id="Ligne_527" data-name="Ligne 527" x1="6.466" y2="25.934" transform="translate(448.277 47.908)" fill="none" stroke="#315ca4" stroke-width="3"/>
        <line id="Ligne_528" data-name="Ligne 528" x1="5.557" y2="26.144" transform="translate(440.504 42.444)" fill="none" stroke="#315ca4" stroke-width="3"/>
        <line id="Ligne_529" data-name="Ligne 529" x1="4.641" y2="26.322" transform="translate(432.552 37.286)" fill="none" stroke="#315ca4" stroke-width="3"/>
        <line id="Ligne_530" data-name="Ligne 530" x1="3.72" y2="26.468" transform="translate(424.432 32.44)" fill="none" stroke="#315ca4" stroke-width="3"/>
        <line id="Ligne_531" data-name="Ligne 531" x1="2.794" y2="26.582" transform="translate(416.152 27.913)" fill="none" stroke="#315ca4" stroke-width="3"/>
        <line id="Ligne_532" data-name="Ligne 532" x1="1.864" y2="26.663" transform="translate(407.723 23.71)" fill="none" stroke="#315ca4" stroke-width="3"/>
        <line id="Ligne_533" data-name="Ligne 533" x1="0.933" y2="26.712" transform="translate(399.156 19.836)" fill="none" stroke="#315ca4" stroke-width="3"/>
        <line id="Ligne_534" data-name="Ligne 534" y2="26.728" transform="translate(390.461 16.296)" fill="none" stroke="#315ca4" stroke-width="3"/>
        <line id="Ligne_535" data-name="Ligne 535" x2="0.933" y2="26.712" transform="translate(380.714 13.094)" fill="none" stroke="#315ca4" stroke-width="3"/>
        <line id="Ligne_536" data-name="Ligne 536" x2="1.864" y2="26.663" transform="translate(370.863 10.234)" fill="none" stroke="#315ca4" stroke-width="3"/>
        <line id="Ligne_537" data-name="Ligne 537" x2="2.794" y2="26.582" transform="translate(360.917 7.72)" fill="none" stroke="#315ca4" stroke-width="3"/>
        <line id="Ligne_538" data-name="Ligne 538" x2="3.72" y2="26.468" transform="translate(350.89 5.555)" fill="none" stroke="#315ca4" stroke-width="3"/>
        <line id="Ligne_539" data-name="Ligne 539" x2="4.641" y2="26.322" transform="translate(340.793 3.74)" fill="none" stroke="#315ca4" stroke-width="3"/>
        <line id="Ligne_540" data-name="Ligne 540" x2="5.557" y2="26.144" transform="translate(330.639 2.279)" fill="none" stroke="#315ca4" stroke-width="3"/>
        <line id="Ligne_541" data-name="Ligne 541" x2="6.466" y2="25.934" transform="translate(320.44 1.174)" fill="none" stroke="#315ca4" stroke-width="3"/>
        <line id="Ligne_542" data-name="Ligne 542" x2="7.367" y2="25.693" transform="translate(310.209 0.425)" fill="none" stroke="#315ca4" stroke-width="3"/>
        <line id="Ligne_543" data-name="Ligne 543" x2="8.259" y2="25.42" transform="translate(299.958 0.033)" fill="none" stroke="#315ca4" stroke-width="3"/>
      </g>
      <g id="red" transform="translate(476.93 303.218)">
        <line id="Ligne_544" data-name="Ligne 544" x1="12.773" y1="13.123" transform="translate(341.811 0.018)" fill="none" stroke="#e2001a" stroke-width="2"/>
        <line id="Ligne_545" data-name="Ligne 545" x1="13.223" y1="12.669" transform="translate(329.656 0.461)" fill="none" stroke="#e2001a" stroke-width="2"/>
        <line id="Ligne_546" data-name="Ligne 546" x1="13.657" y1="12.2" transform="translate(317.524 1.328)" fill="none" stroke="#e2001a" stroke-width="2"/>
        <line id="Ligne_547" data-name="Ligne 547" x1="14.075" y1="11.716" transform="translate(305.43 2.617)" fill="none" stroke="#e2001a" stroke-width="2"/>
        <line id="Ligne_548" data-name="Ligne 548" x1="14.475" y1="11.218" transform="translate(293.388 4.328)" fill="none" stroke="#e2001a" stroke-width="2"/>
        <line id="Ligne_549" data-name="Ligne 549" x1="14.858" y1="10.706" transform="translate(281.413 6.458)" fill="none" stroke="#e2001a" stroke-width="2"/>
        <line id="Ligne_550" data-name="Ligne 550" x1="15.222" y1="10.18" transform="translate(269.52 9.004)" fill="none" stroke="#e2001a" stroke-width="2"/>
        <line id="Ligne_551" data-name="Ligne 551" x1="15.568" y1="9.643" transform="translate(257.722 11.965)" fill="none" stroke="#e2001a" stroke-width="2"/>
        <line id="Ligne_552" data-name="Ligne 552" x1="15.896" y1="9.094" transform="translate(246.036 15.335)" fill="none" stroke="#e2001a" stroke-width="2"/>
        <line id="Ligne_553" data-name="Ligne 553" x1="16.203" y1="8.534" transform="translate(234.474 19.11)" fill="none" stroke="#e2001a" stroke-width="2"/>
        <line id="Ligne_554" data-name="Ligne 554" x1="16.491" y1="7.963" transform="translate(223.051 23.288)" fill="none" stroke="#e2001a" stroke-width="2"/>
        <line id="Ligne_555" data-name="Ligne 555" x1="16.759" y1="7.382" transform="translate(211.78 27.861)" fill="none" stroke="#e2001a" stroke-width="2"/>
        <line id="Ligne_556" data-name="Ligne 556" x1="17.006" y1="6.793" transform="translate(200.676 32.824)" fill="none" stroke="#e2001a" stroke-width="2"/>
        <line id="Ligne_557" data-name="Ligne 557" x1="17.233" y1="6.195" transform="translate(189.752 38.173)" fill="none" stroke="#e2001a" stroke-width="2"/>
        <line id="Ligne_558" data-name="Ligne 558" x1="17.439" y1="5.59" transform="translate(179.022 43.899)" fill="none" stroke="#e2001a" stroke-width="2"/>
        <line id="Ligne_559" data-name="Ligne 559" x1="17.623" y1="4.978" transform="translate(168.498 49.996)" fill="none" stroke="#e2001a" stroke-width="2"/>
        <line id="Ligne_560" data-name="Ligne 560" x1="17.786" y1="4.36" transform="translate(158.193 56.457)" fill="none" stroke="#e2001a" stroke-width="2"/>
        <line id="Ligne_561" data-name="Ligne 561" x1="17.928" y1="3.737" transform="translate(148.119 63.273)" fill="none" stroke="#e2001a" stroke-width="2"/>
        <line id="Ligne_562" data-name="Ligne 562" x1="18.047" y1="3.109" transform="translate(138.29 70.437)" fill="none" stroke="#e2001a" stroke-width="2"/>
        <line id="Ligne_563" data-name="Ligne 563" x1="18.145" y1="2.477" transform="translate(128.717 77.94)" fill="none" stroke="#e2001a" stroke-width="2"/>
        <line id="Ligne_564" data-name="Ligne 564" x1="18.22" y1="1.842" transform="translate(119.411 85.772)" fill="none" stroke="#e2001a" stroke-width="2"/>
        <line id="Ligne_565" data-name="Ligne 565" x1="18.273" y1="1.205" transform="translate(110.385 93.924)" fill="none" stroke="#e2001a" stroke-width="2"/>
        <line id="Ligne_566" data-name="Ligne 566" x1="18.304" y1="0.567" transform="translate(101.648 102.386)" fill="none" stroke="#e2001a" stroke-width="2"/>
        <line id="Ligne_567" data-name="Ligne 567" x1="18.313" y2="0.072" transform="translate(93.212 111.076)" fill="none" stroke="#e2001a" stroke-width="2"/>
        <line id="Ligne_568" data-name="Ligne 568" x1="18.299" y2="0.711" transform="translate(85.087 119.488)" fill="none" stroke="#e2001a" stroke-width="2"/>
        <line id="Ligne_569" data-name="Ligne 569" x1="18.263" y2="1.35" transform="translate(77.283 128.178)" fill="none" stroke="#e2001a" stroke-width="2"/>
        <line id="Ligne_570" data-name="Ligne 570" x1="18.205" y2="1.986" transform="translate(69.809 137.138)" fill="none" stroke="#e2001a" stroke-width="2"/>
        <line id="Ligne_571" data-name="Ligne 571" x1="18.125" y2="2.62" transform="translate(62.675 146.354)" fill="none" stroke="#e2001a" stroke-width="2"/>
        <line id="Ligne_572" data-name="Ligne 572" x1="18.022" y2="3.251" transform="translate(55.888 155.817)" fill="none" stroke="#e2001a" stroke-width="2"/>
        <line id="Ligne_573" data-name="Ligne 573" x1="17.898" y2="3.878" transform="translate(49.458 165.514)" fill="none" stroke="#e2001a" stroke-width="2"/>
        <line id="Ligne_574" data-name="Ligne 574" x1="17.751" y2="4.5" transform="translate(43.393 175.434)" fill="none" stroke="#e2001a" stroke-width="2"/>
        <line id="Ligne_575" data-name="Ligne 575" x1="17.584" y2="5.117" transform="translate(37.699 185.565)" fill="none" stroke="#e2001a" stroke-width="2"/>
        <line id="Ligne_576" data-name="Ligne 576" x1="17.394" y2="5.728" transform="translate(32.383 195.895)" fill="none" stroke="#e2001a" stroke-width="2"/>
        <line id="Ligne_577" data-name="Ligne 577" x1="17.184" y2="6.331" transform="translate(27.453 206.41)" fill="none" stroke="#e2001a" stroke-width="2"/>
        <line id="Ligne_578" data-name="Ligne 578" x1="16.952" y2="6.927" transform="translate(22.913 217.098)" fill="none" stroke="#e2001a" stroke-width="2"/>
        <line id="Ligne_579" data-name="Ligne 579" x1="16.7" y2="7.515" transform="translate(18.771 227.946)" fill="none" stroke="#e2001a" stroke-width="2"/>
        <line id="Ligne_580" data-name="Ligne 580" x1="16.428" y2="8.093" transform="translate(15.029 238.941)" fill="none" stroke="#e2001a" stroke-width="2"/>
        <line id="Ligne_581" data-name="Ligne 581" x1="16.135" y2="8.661" transform="translate(11.694 250.069)" fill="none" stroke="#e2001a" stroke-width="2"/>
        <line id="Ligne_582" data-name="Ligne 582" x1="15.823" y2="9.219" transform="translate(8.77 261.318)" fill="none" stroke="#e2001a" stroke-width="2"/>
        <line id="Ligne_583" data-name="Ligne 583" x1="15.492" y2="9.766" transform="translate(6.259 272.672)" fill="none" stroke="#e2001a" stroke-width="2"/>
        <line id="Ligne_584" data-name="Ligne 584" x1="15.142" y2="10.3" transform="translate(4.164 284.118)" fill="none" stroke="#e2001a" stroke-width="2"/>
        <line id="Ligne_585" data-name="Ligne 585" x1="14.773" y2="10.822" transform="translate(2.49 295.643)" fill="none" stroke="#e2001a" stroke-width="2"/>
        <line id="Ligne_586" data-name="Ligne 586" x1="14.386" y2="11.331" transform="translate(1.237 307.232)" fill="none" stroke="#e2001a" stroke-width="2"/>
        <line id="Ligne_587" data-name="Ligne 587" x1="13.982" y2="11.827" transform="translate(0.406 318.872)" fill="none" stroke="#e2001a" stroke-width="2"/>
        <line id="Ligne_588" data-name="Ligne 588" x1="13.561" y2="12.307" transform="translate(0 330.547)" fill="none" stroke="#e2001a" stroke-width="2"/>
        <line id="Ligne_589" data-name="Ligne 589" x1="13.123" y2="12.773" transform="translate(0.018 342.244)" fill="none" stroke="#e2001a" stroke-width="2"/>
        <line id="Ligne_590" data-name="Ligne 590" x1="12.669" y2="13.223" transform="translate(0.461 353.949)" fill="none" stroke="#e2001a" stroke-width="2"/>
        <line id="Ligne_591" data-name="Ligne 591" x1="12.2" y2="13.657" transform="translate(1.328 365.647)" fill="none" stroke="#e2001a" stroke-width="2"/>
        <line id="Ligne_592" data-name="Ligne 592" x1="11.716" y2="14.075" transform="translate(2.617 377.324)" fill="none" stroke="#e2001a" stroke-width="2"/>
        <line id="Ligne_593" data-name="Ligne 593" x1="11.218" y2="14.475" transform="translate(4.328 388.965)" fill="none" stroke="#e2001a" stroke-width="2"/>
        <line id="Ligne_594" data-name="Ligne 594" x1="10.706" y2="14.858" transform="translate(6.458 400.557)" fill="none" stroke="#e2001a" stroke-width="2"/>
        <line id="Ligne_595" data-name="Ligne 595" x1="10.18" y2="15.222" transform="translate(9.004 412.086)" fill="none" stroke="#e2001a" stroke-width="2"/>
        <line id="Ligne_596" data-name="Ligne 596" x1="9.643" y2="15.568" transform="translate(11.965 423.537)" fill="none" stroke="#e2001a" stroke-width="2"/>
        <line id="Ligne_597" data-name="Ligne 597" x1="9.094" y2="15.896" transform="translate(15.335 434.897)" fill="none" stroke="#e2001a" stroke-width="2"/>
        <line id="Ligne_598" data-name="Ligne 598" x1="8.534" y2="16.203" transform="translate(19.11 446.151)" fill="none" stroke="#e2001a" stroke-width="2"/>
        <line id="Ligne_599" data-name="Ligne 599" x1="7.963" y2="16.491" transform="translate(23.287 457.286)" fill="none" stroke="#e2001a" stroke-width="2"/>
        <line id="Ligne_600" data-name="Ligne 600" x1="7.382" y2="16.759" transform="translate(27.861 468.289)" fill="none" stroke="#e2001a" stroke-width="2"/>
        <line id="Ligne_601" data-name="Ligne 601" x1="6.793" y2="17.006" transform="translate(32.824 479.145)" fill="none" stroke="#e2001a" stroke-width="2"/>
        <line id="Ligne_602" data-name="Ligne 602" x1="6.195" y2="17.233" transform="translate(38.173 489.843)" fill="none" stroke="#e2001a" stroke-width="2"/>
        <line id="Ligne_603" data-name="Ligne 603" x1="5.59" y2="17.439" transform="translate(43.899 500.367)" fill="none" stroke="#e2001a" stroke-width="2"/>
        <line id="Ligne_604" data-name="Ligne 604" x1="4.978" y2="17.623" transform="translate(49.996 510.707)" fill="none" stroke="#e2001a" stroke-width="2"/>
        <line id="Ligne_605" data-name="Ligne 605" x1="4.36" y2="17.786" transform="translate(56.457 520.849)" fill="none" stroke="#e2001a" stroke-width="2"/>
        <line id="Ligne_606" data-name="Ligne 606" x1="3.737" y2="17.928" transform="translate(63.273 530.781)" fill="none" stroke="#e2001a" stroke-width="2"/>
        <line id="Ligne_607" data-name="Ligne 607" x1="3.109" y2="18.047" transform="translate(70.437 540.491)" fill="none" stroke="#e2001a" stroke-width="2"/>
        <line id="Ligne_608" data-name="Ligne 608" x1="2.477" y2="18.145" transform="translate(77.94 549.967)" fill="none" stroke="#e2001a" stroke-width="2"/>
        <line id="Ligne_609" data-name="Ligne 609" x1="1.842" y2="18.22" transform="translate(85.772 559.197)" fill="none" stroke="#e2001a" stroke-width="2"/>
        <line id="Ligne_610" data-name="Ligne 610" x1="1.205" y2="18.273" transform="translate(93.924 568.17)" fill="none" stroke="#e2001a" stroke-width="2"/>
        <line id="Ligne_611" data-name="Ligne 611" x1="0.567" y2="18.304" transform="translate(102.386 576.876)" fill="none" stroke="#e2001a" stroke-width="2"/>
        <line id="Ligne_612" data-name="Ligne 612" x2="0.072" y2="18.313" transform="translate(111.076 585.303)" fill="none" stroke="#e2001a" stroke-width="2"/>
        <line id="Ligne_613" data-name="Ligne 613" x2="0.711" y2="18.299" transform="translate(119.488 593.442)" fill="none" stroke="#e2001a" stroke-width="2"/>
        <line id="Ligne_614" data-name="Ligne 614" x2="1.35" y2="18.263" transform="translate(128.178 601.282)" fill="none" stroke="#e2001a" stroke-width="2"/>
        <line id="Ligne_615" data-name="Ligne 615" x2="1.986" y2="18.205" transform="translate(137.137 608.814)" fill="none" stroke="#e2001a" stroke-width="2"/>
        <line id="Ligne_616" data-name="Ligne 616" x2="2.62" y2="18.125" transform="translate(146.354 616.029)" fill="none" stroke="#e2001a" stroke-width="2"/>
        <line id="Ligne_617" data-name="Ligne 617" x2="3.251" y2="18.022" transform="translate(155.817 622.918)" fill="none" stroke="#e2001a" stroke-width="2"/>
        <line id="Ligne_618" data-name="Ligne 618" x2="3.878" y2="17.898" transform="translate(165.514 629.472)" fill="none" stroke="#e2001a" stroke-width="2"/>
        <line id="Ligne_619" data-name="Ligne 619" x2="4.5" y2="17.751" transform="translate(175.434 635.684)" fill="none" stroke="#e2001a" stroke-width="2"/>
        <line id="Ligne_620" data-name="Ligne 620" x2="5.117" y2="17.584" transform="translate(185.565 641.546)" fill="none" stroke="#e2001a" stroke-width="2"/>
        <line id="Ligne_621" data-name="Ligne 621" x2="5.728" y2="17.394" transform="translate(195.895 647.051)" fill="none" stroke="#e2001a" stroke-width="2"/>
        <line id="Ligne_622" data-name="Ligne 622" x2="6.331" y2="17.184" transform="translate(206.41 652.192)" fill="none" stroke="#e2001a" stroke-width="2"/>
        <line id="Ligne_623" data-name="Ligne 623" x2="6.927" y2="16.952" transform="translate(217.098 656.962)" fill="none" stroke="#e2001a" stroke-width="2"/>
        <line id="Ligne_624" data-name="Ligne 624" x2="7.515" y2="16.7" transform="translate(227.946 661.357)" fill="none" stroke="#e2001a" stroke-width="2"/>
        <line id="Ligne_625" data-name="Ligne 625" x2="8.093" y2="16.428" transform="translate(238.941 665.371)" fill="none" stroke="#e2001a" stroke-width="2"/>
        <line id="Ligne_626" data-name="Ligne 626" x2="8.661" y2="16.135" transform="translate(250.069 668.998)" fill="none" stroke="#e2001a" stroke-width="2"/>
        <line id="Ligne_627" data-name="Ligne 627" x2="9.219" y2="15.823" transform="translate(261.318 672.235)" fill="none" stroke="#e2001a" stroke-width="2"/>
        <line id="Ligne_628" data-name="Ligne 628" x2="9.766" y2="15.492" transform="translate(272.672 675.078)" fill="none" stroke="#e2001a" stroke-width="2"/>
        <line id="Ligne_629" data-name="Ligne 629" x2="10.3" y2="15.142" transform="translate(284.118 677.522)" fill="none" stroke="#e2001a" stroke-width="2"/>
        <line id="Ligne_630" data-name="Ligne 630" x2="10.822" y2="14.773" transform="translate(295.643 679.565)" fill="none" stroke="#e2001a" stroke-width="2"/>
        <line id="Ligne_631" data-name="Ligne 631" x2="11.331" y2="14.386" transform="translate(307.232 681.205)" fill="none" stroke="#e2001a" stroke-width="2"/>
        <line id="Ligne_632" data-name="Ligne 632" x2="11.827" y2="13.982" transform="translate(318.872 682.44)" fill="none" stroke="#e2001a" stroke-width="2"/>
        <line id="Ligne_633" data-name="Ligne 633" x2="12.307" y2="13.561" transform="translate(330.547 683.267)" fill="none" stroke="#e2001a" stroke-width="2"/>
        <line id="Ligne_634" data-name="Ligne 634" x2="12.773" y2="13.123" transform="translate(342.244 683.687)" fill="none" stroke="#e2001a" stroke-width="2"/>
        <line id="Ligne_635" data-name="Ligne 635" x2="13.223" y2="12.669" transform="translate(353.949 683.698)" fill="none" stroke="#e2001a" stroke-width="2"/>
        <line id="Ligne_636" data-name="Ligne 636" x2="13.657" y2="12.2" transform="translate(365.647 683.301)" fill="none" stroke="#e2001a" stroke-width="2"/>
        <line id="Ligne_637" data-name="Ligne 637" x2="14.075" y2="11.716" transform="translate(377.323 682.495)" fill="none" stroke="#e2001a" stroke-width="2"/>
        <line id="Ligne_638" data-name="Ligne 638" x2="14.475" y2="11.218" transform="translate(388.965 681.283)" fill="none" stroke="#e2001a" stroke-width="2"/>
        <line id="Ligne_639" data-name="Ligne 639" x2="14.858" y2="10.706" transform="translate(400.557 679.665)" fill="none" stroke="#e2001a" stroke-width="2"/>
        <line id="Ligne_640" data-name="Ligne 640" x2="15.222" y2="10.18" transform="translate(412.086 677.643)" fill="none" stroke="#e2001a" stroke-width="2"/>
        <line id="Ligne_641" data-name="Ligne 641" x2="15.568" y2="9.643" transform="translate(423.537 675.221)" fill="none" stroke="#e2001a" stroke-width="2"/>
        <line id="Ligne_642" data-name="Ligne 642" x2="15.896" y2="9.094" transform="translate(434.897 672.4)" fill="none" stroke="#e2001a" stroke-width="2"/>
        <line id="Ligne_643" data-name="Ligne 643" x2="16.203" y2="8.534" transform="translate(446.151 669.184)" fill="none" stroke="#e2001a" stroke-width="2"/>
        <line id="Ligne_644" data-name="Ligne 644" x2="16.491" y2="7.963" transform="translate(457.286 665.578)" fill="none" stroke="#e2001a" stroke-width="2"/>
        <line id="Ligne_645" data-name="Ligne 645" x2="16.759" y2="7.382" transform="translate(468.289 661.585)" fill="none" stroke="#e2001a" stroke-width="2"/>
        <line id="Ligne_646" data-name="Ligne 646" x2="17.006" y2="6.793" transform="translate(479.145 657.211)" fill="none" stroke="#e2001a" stroke-width="2"/>
        <line id="Ligne_647" data-name="Ligne 647" x2="17.233" y2="6.195" transform="translate(489.843 652.46)" fill="none" stroke="#e2001a" stroke-width="2"/>
        <line id="Ligne_648" data-name="Ligne 648" x2="17.439" y2="5.59" transform="translate(500.367 647.339)" fill="none" stroke="#e2001a" stroke-width="2"/>
        <line id="Ligne_649" data-name="Ligne 649" x2="17.623" y2="4.978" transform="translate(510.707 641.854)" fill="none" stroke="#e2001a" stroke-width="2"/>
        <line id="Ligne_650" data-name="Ligne 650" x2="17.786" y2="4.36" transform="translate(520.849 636.011)" fill="none" stroke="#e2001a" stroke-width="2"/>
        <line id="Ligne_651" data-name="Ligne 651" x2="17.928" y2="3.737" transform="translate(530.781 629.818)" fill="none" stroke="#e2001a" stroke-width="2"/>
        <line id="Ligne_652" data-name="Ligne 652" x2="18.047" y2="3.109" transform="translate(540.491 623.282)" fill="none" stroke="#e2001a" stroke-width="2"/>
        <line id="Ligne_653" data-name="Ligne 653" x2="18.145" y2="2.477" transform="translate(549.967 616.411)" fill="none" stroke="#e2001a" stroke-width="2"/>
        <line id="Ligne_654" data-name="Ligne 654" x2="18.22" y2="1.842" transform="translate(559.197 609.214)" fill="none" stroke="#e2001a" stroke-width="2"/>
        <line id="Ligne_655" data-name="Ligne 655" x2="18.273" y2="1.205" transform="translate(568.17 601.699)" fill="none" stroke="#e2001a" stroke-width="2"/>
        <line id="Ligne_656" data-name="Ligne 656" x2="18.304" y2="0.567" transform="translate(576.876 593.875)" fill="none" stroke="#e2001a" stroke-width="2"/>
        <line id="Ligne_657" data-name="Ligne 657" y1="0.072" x2="18.313" transform="translate(585.303 585.68)" fill="none" stroke="#e2001a" stroke-width="2"/>
        <line id="Ligne_658" data-name="Ligne 658" y1="0.711" x2="18.299" transform="translate(593.442 576.629)" fill="none" stroke="#e2001a" stroke-width="2"/>
        <line id="Ligne_659" data-name="Ligne 659" y1="1.35" x2="18.263" transform="translate(601.282 567.3)" fill="none" stroke="#e2001a" stroke-width="2"/>
        <line id="Ligne_660" data-name="Ligne 660" y1="1.986" x2="18.205" transform="translate(608.814 557.705)" fill="none" stroke="#e2001a" stroke-width="2"/>
        <line id="Ligne_661" data-name="Ligne 661" y1="2.62" x2="18.125" transform="translate(616.029 547.854)" fill="none" stroke="#e2001a" stroke-width="2"/>
        <line id="Ligne_662" data-name="Ligne 662" y1="3.251" x2="18.022" transform="translate(622.918 537.76)" fill="none" stroke="#e2001a" stroke-width="2"/>
        <line id="Ligne_663" data-name="Ligne 663" y1="3.878" x2="17.898" transform="translate(629.472 527.436)" fill="none" stroke="#e2001a" stroke-width="2"/>
        <line id="Ligne_664" data-name="Ligne 664" y1="4.5" x2="17.751" transform="translate(635.684 516.893)" fill="none" stroke="#e2001a" stroke-width="2"/>
        <line id="Ligne_665" data-name="Ligne 665" y1="5.117" x2="17.584" transform="translate(641.546 506.146)" fill="none" stroke="#e2001a" stroke-width="2"/>
        <line id="Ligne_666" data-name="Ligne 666" y1="5.728" x2="17.394" transform="translate(647.051 495.206)" fill="none" stroke="#e2001a" stroke-width="2"/>
        <line id="Ligne_667" data-name="Ligne 667" y1="6.331" x2="17.184" transform="translate(652.192 484.087)" fill="none" stroke="#e2001a" stroke-width="2"/>
        <line id="Ligne_668" data-name="Ligne 668" y1="6.927" x2="16.952" transform="translate(656.962 472.803)" fill="none" stroke="#e2001a" stroke-width="2"/>
        <line id="Ligne_669" data-name="Ligne 669" y1="7.515" x2="16.7" transform="translate(661.357 461.367)" fill="none" stroke="#e2001a" stroke-width="2"/>
        <line id="Ligne_670" data-name="Ligne 670" y1="8.093" x2="16.428" transform="translate(665.371 449.794)" fill="none" stroke="#e2001a" stroke-width="2"/>
        <line id="Ligne_671" data-name="Ligne 671" y1="8.661" x2="16.135" transform="translate(668.998 438.098)" fill="none" stroke="#e2001a" stroke-width="2"/>
        <line id="Ligne_672" data-name="Ligne 672" y1="9.219" x2="15.823" transform="translate(672.235 426.292)" fill="none" stroke="#e2001a" stroke-width="2"/>
        <line id="Ligne_673" data-name="Ligne 673" y1="9.766" x2="15.492" transform="translate(675.078 414.391)" fill="none" stroke="#e2001a" stroke-width="2"/>
        <line id="Ligne_674" data-name="Ligne 674" y1="10.3" x2="15.142" transform="translate(677.522 402.409)" fill="none" stroke="#e2001a" stroke-width="2"/>
        <line id="Ligne_675" data-name="Ligne 675" y1="10.822" x2="14.773" transform="translate(679.565 390.362)" fill="none" stroke="#e2001a" stroke-width="2"/>
        <line id="Ligne_676" data-name="Ligne 676" y1="11.331" x2="14.386" transform="translate(681.205 378.264)" fill="none" stroke="#e2001a" stroke-width="2"/>
        <line id="Ligne_677" data-name="Ligne 677" y1="11.827" x2="13.982" transform="translate(682.44 366.13)" fill="none" stroke="#e2001a" stroke-width="2"/>
        <line id="Ligne_678" data-name="Ligne 678" y1="12.307" x2="13.561" transform="translate(683.267 353.974)" fill="none" stroke="#e2001a" stroke-width="2"/>
        <line id="Ligne_679" data-name="Ligne 679" y1="12.773" x2="13.123" transform="translate(683.687 341.811)" fill="none" stroke="#e2001a" stroke-width="2"/>
        <line id="Ligne_680" data-name="Ligne 680" y1="13.223" x2="12.669" transform="translate(683.698 329.656)" fill="none" stroke="#e2001a" stroke-width="2"/>
        <line id="Ligne_681" data-name="Ligne 681" y1="13.657" x2="12.2" transform="translate(683.301 317.524)" fill="none" stroke="#e2001a" stroke-width="2"/>
        <line id="Ligne_682" data-name="Ligne 682" y1="14.075" x2="11.716" transform="translate(682.495 305.43)" fill="none" stroke="#e2001a" stroke-width="2"/>
        <line id="Ligne_683" data-name="Ligne 683" y1="14.475" x2="11.218" transform="translate(681.283 293.388)" fill="none" stroke="#e2001a" stroke-width="2"/>
        <line id="Ligne_684" data-name="Ligne 684" y1="14.858" x2="10.706" transform="translate(679.665 281.413)" fill="none" stroke="#e2001a" stroke-width="2"/>
        <line id="Ligne_685" data-name="Ligne 685" y1="15.222" x2="10.18" transform="translate(677.643 269.52)" fill="none" stroke="#e2001a" stroke-width="2"/>
        <line id="Ligne_686" data-name="Ligne 686" y1="15.568" x2="9.643" transform="translate(675.221 257.722)" fill="none" stroke="#e2001a" stroke-width="2"/>
        <line id="Ligne_687" data-name="Ligne 687" y1="15.896" x2="9.094" transform="translate(672.4 246.036)" fill="none" stroke="#e2001a" stroke-width="2"/>
        <line id="Ligne_688" data-name="Ligne 688" y1="16.203" x2="8.534" transform="translate(669.184 234.474)" fill="none" stroke="#e2001a" stroke-width="2"/>
        <line id="Ligne_689" data-name="Ligne 689" y1="16.491" x2="7.963" transform="translate(665.578 223.051)" fill="none" stroke="#e2001a" stroke-width="2"/>
        <line id="Ligne_690" data-name="Ligne 690" y1="16.759" x2="7.382" transform="translate(661.585 211.78)" fill="none" stroke="#e2001a" stroke-width="2"/>
        <line id="Ligne_691" data-name="Ligne 691" y1="17.006" x2="6.793" transform="translate(657.211 200.676)" fill="none" stroke="#e2001a" stroke-width="2"/>
        <line id="Ligne_692" data-name="Ligne 692" y1="17.233" x2="6.195" transform="translate(652.46 189.752)" fill="none" stroke="#e2001a" stroke-width="2"/>
        <line id="Ligne_693" data-name="Ligne 693" y1="17.439" x2="5.59" transform="translate(647.339 179.022)" fill="none" stroke="#e2001a" stroke-width="2"/>
        <line id="Ligne_694" data-name="Ligne 694" y1="17.623" x2="4.978" transform="translate(641.854 168.498)" fill="none" stroke="#e2001a" stroke-width="2"/>
        <line id="Ligne_695" data-name="Ligne 695" y1="17.786" x2="4.36" transform="translate(636.011 158.193)" fill="none" stroke="#e2001a" stroke-width="2"/>
        <line id="Ligne_696" data-name="Ligne 696" y1="17.928" x2="3.737" transform="translate(629.818 148.119)" fill="none" stroke="#e2001a" stroke-width="2"/>
        <line id="Ligne_697" data-name="Ligne 697" y1="18.047" x2="3.109" transform="translate(623.282 138.29)" fill="none" stroke="#e2001a" stroke-width="2"/>
        <line id="Ligne_698" data-name="Ligne 698" y1="18.145" x2="2.477" transform="translate(616.411 128.717)" fill="none" stroke="#e2001a" stroke-width="2"/>
        <line id="Ligne_699" data-name="Ligne 699" y1="18.22" x2="1.842" transform="translate(609.214 119.411)" fill="none" stroke="#e2001a" stroke-width="2"/>
        <line id="Ligne_700" data-name="Ligne 700" y1="18.273" x2="1.205" transform="translate(601.699 110.385)" fill="none" stroke="#e2001a" stroke-width="2"/>
        <line id="Ligne_701" data-name="Ligne 701" y1="18.304" x2="0.567" transform="translate(593.875 101.648)" fill="none" stroke="#e2001a" stroke-width="2"/>
        <line id="Ligne_702" data-name="Ligne 702" x1="0.072" y1="18.313" transform="translate(585.68 93.212)" fill="none" stroke="#e2001a" stroke-width="2"/>
        <line id="Ligne_703" data-name="Ligne 703" x1="0.711" y1="18.299" transform="translate(576.629 85.087)" fill="none" stroke="#e2001a" stroke-width="2"/>
        <line id="Ligne_704" data-name="Ligne 704" x1="1.35" y1="18.263" transform="translate(567.3 77.283)" fill="none" stroke="#e2001a" stroke-width="2"/>
        <line id="Ligne_705" data-name="Ligne 705" x1="1.986" y1="18.205" transform="translate(557.705 69.809)" fill="none" stroke="#e2001a" stroke-width="2"/>
        <line id="Ligne_706" data-name="Ligne 706" x1="2.62" y1="18.125" transform="translate(547.854 62.675)" fill="none" stroke="#e2001a" stroke-width="2"/>
        <line id="Ligne_707" data-name="Ligne 707" x1="3.251" y1="18.022" transform="translate(537.76 55.888)" fill="none" stroke="#e2001a" stroke-width="2"/>
        <line id="Ligne_708" data-name="Ligne 708" x1="3.878" y1="17.898" transform="translate(527.436 49.458)" fill="none" stroke="#e2001a" stroke-width="2"/>
        <line id="Ligne_709" data-name="Ligne 709" x1="4.5" y1="17.751" transform="translate(516.893 43.393)" fill="none" stroke="#e2001a" stroke-width="2"/>
        <line id="Ligne_710" data-name="Ligne 710" x1="5.117" y1="17.584" transform="translate(506.146 37.699)" fill="none" stroke="#e2001a" stroke-width="2"/>
        <line id="Ligne_711" data-name="Ligne 711" x1="5.728" y1="17.394" transform="translate(495.206 32.383)" fill="none" stroke="#e2001a" stroke-width="2"/>
        <line id="Ligne_712" data-name="Ligne 712" x1="6.331" y1="17.184" transform="translate(484.087 27.453)" fill="none" stroke="#e2001a" stroke-width="2"/>
        <line id="Ligne_713" data-name="Ligne 713" x1="6.927" y1="16.952" transform="translate(472.803 22.913)" fill="none" stroke="#e2001a" stroke-width="2"/>
        <line id="Ligne_714" data-name="Ligne 714" x1="7.515" y1="16.7" transform="translate(461.367 18.771)" fill="none" stroke="#e2001a" stroke-width="2"/>
        <line id="Ligne_715" data-name="Ligne 715" x1="8.093" y1="16.428" transform="translate(449.794 15.029)" fill="none" stroke="#e2001a" stroke-width="2"/>
        <line id="Ligne_716" data-name="Ligne 716" x1="8.661" y1="16.135" transform="translate(438.098 11.694)" fill="none" stroke="#e2001a" stroke-width="2"/>
        <line id="Ligne_717" data-name="Ligne 717" x1="9.219" y1="15.823" transform="translate(426.292 8.77)" fill="none" stroke="#e2001a" stroke-width="2"/>
        <line id="Ligne_718" data-name="Ligne 718" x1="9.766" y1="15.492" transform="translate(414.391 6.259)" fill="none" stroke="#e2001a" stroke-width="2"/>
        <line id="Ligne_719" data-name="Ligne 719" x1="10.3" y1="15.142" transform="translate(402.409 4.164)" fill="none" stroke="#e2001a" stroke-width="2"/>
        <line id="Ligne_720" data-name="Ligne 720" x1="10.822" y1="14.773" transform="translate(390.362 2.49)" fill="none" stroke="#e2001a" stroke-width="2"/>
        <line id="Ligne_721" data-name="Ligne 721" x1="11.331" y1="14.386" transform="translate(378.264 1.237)" fill="none" stroke="#e2001a" stroke-width="2"/>
        <line id="Ligne_722" data-name="Ligne 722" x1="11.827" y1="13.982" transform="translate(366.13 0.406)" fill="none" stroke="#e2001a" stroke-width="2"/>
        <line id="Ligne_723" data-name="Ligne 723" x1="12.307" y1="13.561" transform="translate(353.974)" fill="none" stroke="#e2001a" stroke-width="2"/>
      </g>
    </g>
    <g id="Texte" transform="translate(377.982 829.204)">
      <path id="Tracé_39" data-name="Tracé 39" d="M488.274-804.439l30.238-2.946q2.729,15.234,11.075,22.37t22.526,7.14q15,0,22.612-6.355t7.62-14.86a14.072,14.072,0,0,0-3.2-9.29q-3.215-3.822-11.185-6.661-5.45-1.89-24.882-6.719-24.984-6.205-35.062-15.229-14.187-12.7-14.178-30.972a39.561,39.561,0,0,1,6.673-21.994q6.664-10.235,19.2-15.593T550-910.9q28.979,0,43.619,12.7T609-864.281l-31.076,1.37q-1.993-11.864-8.556-17.061t-19.677-5.206q-13.554,0-21.215,5.564a11.242,11.242,0,0,0-4.934,9.561,11.826,11.826,0,0,0,4.622,9.337q5.884,4.948,28.563,10.289,22.662,5.364,33.537,11.075a43.305,43.305,0,0,1,17.008,15.64q6.153,9.922,6.147,24.519a45.32,45.32,0,0,1-7.354,24.779,44.062,44.062,0,0,1-20.786,17.17q-13.432,5.608-33.486,5.61-29.187,0-44.832-13.491t-18.69-39.314" transform="translate(-488.274 1069.132)"/>
      <path id="Tracé_40" data-name="Tracé 40" d="M617.021-868.052l-29.077,5.245q-1.473-8.71-6.679-13.12-5.182-4.4-13.484-4.408-11.023,0-17.592,7.609-6.551,7.626-6.552,25.466,0,19.845,6.661,28.026t17.9,8.192q8.4,0,13.756-4.778t7.55-16.437l28.985,4.935q-4.524,19.949-17.32,30.128Q588.358-786.985,566.834-787q-24.455,0-39-15.437T513.3-845.168q0-27.61,14.588-42.983,14.6-15.4,39.476-15.385,20.373,0,32.387,8.77t17.274,26.715" transform="translate(-368.736 1104.297)"/>
      <rect id="Rectangle_588" data-name="Rectangle 588" width="29.498" height="111.495" transform="translate(270.418 203.276)"/>
      <path id="Tracé_41" data-name="Tracé 41" d="M618.827-854.822q-.32-12.817-6.615-19.481a20.3,20.3,0,0,0-15.333-6.661,20.48,20.48,0,0,0-15.956,7.037q-6.292,7.029-6.194,19.106Zm-1.681,29.817,29.389,4.928q-5.659,16.162-17.893,24.628Q616.406-787,598.034-787q-29.083,0-43.041-19-11.031-15.217-11.023-38.431,0-27.714,14.478-43.4,14.5-15.685,36.64-15.7,24.9,0,39.268,16.437,14.394,16.421,13.756,50.332H574.2q.32,13.12,7.141,20.423a22.334,22.334,0,0,0,17.008,7.291,18.035,18.035,0,0,0,11.653-3.779c3.154-2.519,5.523-6.574,7.141-12.172" transform="translate(-222.198 1104.297)"/>
      <path id="Tracé_42" data-name="Tracé 42" d="M667.746-789.527h-29.5v-56.9q0-18.06-1.895-23.352a16.456,16.456,0,0,0-6.136-8.256,17.671,17.671,0,0,0-10.237-2.929,23.676,23.676,0,0,0-13.756,4.195,21.212,21.212,0,0,0-8.348,11.127q-2.253,6.941-2.254,25.616v50.5h-29.5v-111.5h27.4v16.391q14.585-18.9,36.743-18.9a44.248,44.248,0,0,1,17.846,3.518q8.086,3.51,12.237,8.978a32.481,32.481,0,0,1,5.771,12.387q1.638,6.924,1.629,19.833Z" transform="translate(-116.366 1104.297)"/>
      <path id="Tracé_43" data-name="Tracé 43" d="M691.485-868.052l-29.077,5.245q-1.473-8.71-6.672-13.12t-13.484-4.408q-11.032,0-17.592,7.609-6.56,7.626-6.557,25.466,0,19.845,6.662,28.026,6.681,8.188,17.9,8.192,8.4,0,13.756-4.778t7.551-16.437l28.985,4.935q-4.524,19.949-17.321,30.128Q662.82-786.985,641.3-787q-24.455,0-39-15.437t-14.536-42.729q0-27.61,14.582-42.983,14.6-15.4,39.482-15.385,20.365,0,32.382,8.77t17.274,26.715" transform="translate(-12.976 1104.297)"/>
      <path id="Tracé_44" data-name="Tracé 44" d="M682.955-854.822q-.311-12.817-6.615-19.481a20.3,20.3,0,0,0-15.332-6.661,20.463,20.463,0,0,0-15.952,7.037q-6.291,7.029-6.193,19.106Zm-1.681,29.817,29.395,4.928q-5.668,16.162-17.9,24.628Q680.535-787,662.163-787q-29.083,0-43.041-19Q608.09-821.221,608.1-844.434q0-27.714,14.484-43.4t36.651-15.7q24.871,0,39.256,16.437,14.387,16.421,13.756,50.332H638.337q.313,13.12,7.141,20.423a22.333,22.333,0,0,0,17,7.291,18.025,18.025,0,0,0,11.653-3.779q4.731-3.778,7.141-12.172" transform="translate(84.165 1104.297)"/>
      <path id="Tracé_45" data-name="Tracé 45" d="M503.8-893.241h16.379v-8.406q0-14.057,2.987-20.99c2-4.627,5.673-8.376,11.023-11.288q8.051-4.35,20.325-4.362a81.978,81.978,0,0,1,24.669,3.79l-4,20.578a58.147,58.147,0,0,0-13.53-1.681q-6.414,0-9.186,2.992-2.79,2.981-2.785,11.485v7.881h22.046v23.2H549.688v88.3h-29.5v-88.3H503.8Z" transform="translate(-414.083 938.286)"/>
      <path id="Tracé_46" data-name="Tracé 46" d="M592.73-847.055q-.321-12.809-6.615-19.47a20.269,20.269,0,0,0-15.333-6.672,20.5,20.5,0,0,0-15.957,7.037q-6.292,7.028-6.193,19.106Zm-58.27-60.257,22.052-30.972H583.8l21.74,30.972H581.811l-12.184-15.651-11.341,15.651Zm56.588,90.074,29.39,4.934q-5.659,16.162-17.892,24.623t-30.608,8.452q-29.083,0-43.041-19.008-11.031-15.217-11.023-38.424,0-27.714,14.478-43.4,14.5-15.694,36.64-15.7,24.9,0,39.268,16.43Q622.654-862.9,622.015-829H548.106q.321,13.129,7.141,20.417a22.314,22.314,0,0,0,17.008,7.291,18.031,18.031,0,0,0,11.653-3.773c3.154-2.525,5.523-6.58,7.14-12.178" transform="translate(-346.866 938.296)"/>
      <path id="Tracé_47" data-name="Tracé 47" d="M602.2-897.927v23.514H582.032v44.935q0,13.64.584,15.905a6.443,6.443,0,0,0,2.617,3.732,8.32,8.32,0,0,0,4.991,1.461q4.1,0,11.861-2.831l2.525,22.884a58.541,58.541,0,0,1-23.317,4.408,36.822,36.822,0,0,1-14.374-2.68c-4.275-1.773-7.406-4.091-9.393-6.916q-3-4.264-4.148-11.5-.953-5.139-.948-20.792v-48.6H538.882v-23.514H552.43v-22.15l29.6-17.228v39.378Z" transform="translate(-246.505 942.973)"/>
      <path id="Tracé_48" data-name="Tracé 48" d="M627.681-882.215q-.312-12.808-6.615-19.47a20.268,20.268,0,0,0-15.333-6.673,20.487,20.487,0,0,0-15.951,7.036q-6.291,7.028-6.193,19.106ZM626-852.4l29.4,4.933Q649.727-831.3,637.5-822.842t-30.614,8.452q-29.083,0-43.042-19.008-11.022-15.216-11.023-38.424,0-27.714,14.484-43.4t36.639-15.7q24.888,0,39.268,16.431t13.756,50.337H583.063q.312,13.13,7.141,20.417a22.309,22.309,0,0,0,17,7.291,18.022,18.022,0,0,0,11.653-3.773q4.731-3.787,7.14-12.178" transform="translate(-179.9 973.457)"/>
      <path id="Tracé_49" data-name="Tracé 49" d="M595.448-870.791q0,10.339,2.854,14.958,4.134,6.682,11.555,6.685a12.57,12.57,0,0,0,10.029-5.015q4.142-5.009,4.137-14.98,0-11.127-4.021-16.021a12.7,12.7,0,0,0-10.272-4.9,12.815,12.815,0,0,0-10.18,4.841q-4.1,4.836-4.1,14.431m45.595,33.682H625.166V-846.6a25.625,25.625,0,0,1-9.325,8.256,24.043,24.043,0,0,1-10.855,2.7q-11.119,0-19.054-8.967T578-869.635q0-16.405,7.725-24.953a25.157,25.157,0,0,1,19.5-8.544c7.21,0,13.467,3,18.724,9v-32.1h17.089Z" transform="translate(-59.626 995.857)"/>
      <path id="Tracé_50" data-name="Tracé 50" d="M634.3-894.02q-.173-7.418-3.824-11.277a11.762,11.762,0,0,0-8.88-3.859,11.867,11.867,0,0,0-9.232,4.067q-3.648,4.064-3.587,11.069Zm-.971,17.263,17.014,2.848q-3.276,9.376-10.365,14.258-7.081,4.914-17.708,4.9-16.847,0-24.928-11-6.379-8.813-6.378-22.249,0-16.058,8.389-25.142a27.624,27.624,0,0,1,21.214-9.094q14.411,0,22.734,9.515t7.955,29.158H608.466c.127,5.06,1.5,9,4.136,11.814a12.927,12.927,0,0,0,9.845,4.235,10.442,10.442,0,0,0,6.742-2.2c1.82-1.444,3.2-3.807,4.136-7.042" transform="translate(2.292 1014.962)"/>
      <rect id="Rectangle_589" data-name="Rectangle 589" width="17.087" height="89.126" transform="translate(702.083 69.622)"/>
      <path id="Tracé_51" data-name="Tracé 51" d="M655.126-887.22q-3.276,1.092-10.4,2.617c-4.731,1.017-7.845,2.01-9.29,2.981a7.106,7.106,0,0,0-3.356,6.02,8.4,8.4,0,0,0,2.675,6.194,9.38,9.38,0,0,0,6.817,2.617,14.825,14.825,0,0,0,8.81-3.039,10.721,10.721,0,0,0,4.079-5.656,33.8,33.8,0,0,0,.665-8.331Zm-22.861-13.86-15.495-2.8q2.609-9.359,8.99-13.86t18.966-4.5q11.431,0,17.026,2.7a17.109,17.109,0,0,1,7.88,6.869q2.262,4.177,2.276,15.287l-.185,19.949a69.24,69.24,0,0,0,.815,12.554,37.082,37.082,0,0,0,3.073,8.66h-16.9c-.445-1.133-.993-2.82-1.646-5.05-.278-1.017-.48-1.681-.607-2a31.051,31.051,0,0,1-9.359,6.384,26.984,26.984,0,0,1-10.636,2.126q-9.975,0-15.72-5.414a18.013,18.013,0,0,1-5.737-13.687,18.363,18.363,0,0,1,2.605-9.757,17.086,17.086,0,0,1,7.326-6.557,57.352,57.352,0,0,1,13.594-3.986q11.968-2.236,16.593-4.195v-1.7c0-3.27-.815-5.622-2.427-7.014q-2.443-2.106-9.191-2.1a12.117,12.117,0,0,0-7.106,1.8q-2.556,1.785-4.137,6.286" transform="translate(117.172 1014.962)"/>
      <path id="Tracé_52" data-name="Tracé 52" d="M533.623-889.164a23.184,23.184,0,0,1,23.184-23.19A23.189,23.189,0,0,1,580-889.164a23.184,23.184,0,0,1-23.19,23.184,23.179,23.179,0,0,1-23.184-23.184" transform="translate(-271.629 1062.171)" fill="#009f3b"/>
      <path id="Tracé_53" data-name="Tracé 53" d="M526.559-877.107a14.009,14.009,0,0,0-3.2-9.29q-3.215-3.822-11.185-6.673c-1.161-.4-2.8-.9-4.887-1.5a26.4,26.4,0,0,0-7.337,18.3,26.429,26.429,0,0,0,8.157,19.111,26.416,26.416,0,0,0,10.844-5.1q7.608-6.352,7.608-14.859" transform="translate(-432.499 1147.15)" fill="#009f3b"/>
      <path id="Tracé_54" data-name="Tracé 54" d="M599.677-846.732c.213.254.445.479.658.722a26.493,26.493,0,0,0,19.724-25.617,26.51,26.51,0,0,0-22.248-26.154q-4.792,7.782-4.8,23.011,0,19.845,6.661,28.037" transform="translate(12.109 1131.795)" fill="#009f3b"/>
    </g>
  </g>
</svg>
