<svg xmlns="http://www.w3.org/2000/svg" xmlns:xlink="http://www.w3.org/1999/xlink" width="35" height="53.936" viewBox="0 0 35 53.936">
  <defs>
    <clipPath id="clip-path">
      <rect id="Rectangle_620" data-name="Rectangle 620" width="35" height="53.936" fill="none"/>
    </clipPath>
  </defs>
  <g id="Groupe_73" data-name="Groupe 73" transform="translate(-255.827 -226.772)">
    <g id="Groupe_73-2" data-name="Groupe 73" transform="translate(255.827 226.772)" clip-path="url(#clip-path)">
      <path id="Tracé_1164" data-name="Tracé 1164" d="M278.535,261.2c-10.407-2.674-12.383-3.081-12.383-6.279,0-3.488,3.372-4.709,6.279-4.709,4.361,0,7.907,1.279,8.2,6.279h8.837c0-9.592-7.965-13.372-16.627-13.372-7.5,0-15.523,4.07-15.523,12.558,0,7.79,6.221,10.174,12.383,11.8,2.7.72,5.421,1.27,7.618,2.045,2.771.979,4.707,2.318,4.707,4.815,0,3.413-3.158,4.682-6.057,5.049a16.386,16.386,0,0,1-2.024.126c-4.883,0-9.186-2.152-9.186-7.674h-8.837c-.116,10.232,8.489,14.767,17.674,14.767,11.279,0,17.267-5.7,17.267-13.314,0-9.418-9.3-11.337-12.325-12.093" transform="translate(-255.86 -232.669)" fill="#1a171b"/>
      <path id="Tracé_1165" data-name="Tracé 1165" d="M292.56,289.24c0-2.5-1.936-3.835-4.708-4.815a7.184,7.184,0,0,0-1.349,9.863c2.9-.366,6.057-1.636,6.057-5.048" transform="translate(-266.397 -247.571)" fill="#5770be"/>
      <path id="Tracé_1166" data-name="Tracé 1166" d="M274.156,226.772h7.558l6.4,8.255h-6.8l-3.6-4.709-3.721,4.709H267.7Z" transform="translate(-260.111 -226.772)" fill="#1a171b"/>
    </g>
  </g>
</svg>
