<svg xmlns="http://www.w3.org/2000/svg" width="202" height="76.051" viewBox="0 0 202 76.051">
  <g id="logo_fds" transform="translate(-488.274 941.026)">
    <path id="Tracé_39" data-name="Tracé 39" d="M488.274-886.608l6.9-.672a8.414,8.414,0,0,0,2.527,5.1,7.646,7.646,0,0,0,5.139,1.629A7.883,7.883,0,0,0,508-882a4.308,4.308,0,0,0,1.739-3.39,3.21,3.21,0,0,0-.73-2.119,5.861,5.861,0,0,0-2.552-1.52q-1.244-.431-5.677-1.533-5.7-1.416-8-3.475a9.13,9.13,0,0,1-3.235-7.067,9.026,9.026,0,0,1,1.522-5.018,9.547,9.547,0,0,1,4.381-3.558,17.6,17.6,0,0,1,6.911-1.22q6.612,0,9.952,2.9a10.23,10.23,0,0,1,3.509,7.737l-7.09.313a6,6,0,0,0-1.952-3.893,7.126,7.126,0,0,0-4.489-1.188,8.113,8.113,0,0,0-4.84,1.269,2.565,2.565,0,0,0-1.126,2.181,2.7,2.7,0,0,0,1.055,2.13q1.343,1.129,6.517,2.348a34.587,34.587,0,0,1,7.652,2.527,9.88,9.88,0,0,1,3.881,3.568,10.431,10.431,0,0,1,1.4,5.594,10.34,10.34,0,0,1-1.678,5.654,10.052,10.052,0,0,1-4.743,3.917,19.917,19.917,0,0,1-7.64,1.28q-6.659,0-10.229-3.078t-4.264-8.97" transform="translate(0 9.585)"/>
    <path id="Tracé_40" data-name="Tracé 40" d="M536.961-895.44l-6.634,1.2a4.811,4.811,0,0,0-1.524-2.993,4.59,4.59,0,0,0-3.076-1.006,5.033,5.033,0,0,0-4.014,1.736q-1.495,1.74-1.495,5.81,0,4.528,1.52,6.394a5,5,0,0,0,4.085,1.869,4.537,4.537,0,0,0,3.139-1.09,6.548,6.548,0,0,0,1.723-3.75l6.613,1.126a11.741,11.741,0,0,1-3.952,6.874,12.219,12.219,0,0,1-7.835,2.325,11.637,11.637,0,0,1-8.9-3.522q-3.32-3.52-3.318-9.749,0-6.3,3.328-9.807a11.82,11.82,0,0,1,9.007-3.51,12.283,12.283,0,0,1,7.389,2,11.075,11.075,0,0,1,3.941,6.1" transform="translate(7.96 11.926)"/>
    <rect id="Rectangle_588" data-name="Rectangle 588" width="6.73" height="25.438" transform="translate(549.972 -891.036)"/>
    <path id="Tracé_41" data-name="Tracé 41" d="M561.049-892.421a6.5,6.5,0,0,0-1.509-4.445,4.631,4.631,0,0,0-3.5-1.52,4.673,4.673,0,0,0-3.641,1.605,6.211,6.211,0,0,0-1.413,4.359Zm-.384,6.8,6.705,1.124a11.008,11.008,0,0,1-4.082,5.619,12,12,0,0,1-6.983,1.927q-6.635,0-9.82-4.335a14.555,14.555,0,0,1-2.515-8.768q0-6.323,3.3-9.9a10.9,10.9,0,0,1,8.36-3.581,11.279,11.279,0,0,1,8.959,3.75q3.284,3.747,3.138,11.483H550.868a6.807,6.807,0,0,0,1.629,4.66,5.1,5.1,0,0,0,3.88,1.663,4.115,4.115,0,0,0,2.659-.862,5.327,5.327,0,0,0,1.629-2.777" transform="translate(17.718 11.926)"/>
    <path id="Tracé_42" data-name="Tracé 42" d="M589.309-877.524h-6.73v-12.982a19.972,19.972,0,0,0-.432-5.328,3.754,3.754,0,0,0-1.4-1.884,4.032,4.032,0,0,0-2.336-.668,5.4,5.4,0,0,0-3.138.957,4.84,4.84,0,0,0-1.9,2.539,22,22,0,0,0-.514,5.844v11.522h-6.73v-25.439h6.251v3.74a10.185,10.185,0,0,1,8.383-4.313,10.1,10.1,0,0,1,4.072.8,6.809,6.809,0,0,1,2.792,2.048,7.41,7.41,0,0,1,1.317,2.826,20.9,20.9,0,0,1,.372,4.525Z" transform="translate(24.766 11.926)"/>
    <path id="Tracé_43" data-name="Tracé 43" d="M611.429-895.44l-6.634,1.2a4.81,4.81,0,0,0-1.522-2.993,4.6,4.6,0,0,0-3.077-1.006,5.032,5.032,0,0,0-4.014,1.736q-1.5,1.74-1.5,5.81,0,4.528,1.52,6.394a5,5,0,0,0,4.085,1.869,4.536,4.536,0,0,0,3.138-1.09,6.548,6.548,0,0,0,1.723-3.75l6.613,1.126a11.733,11.733,0,0,1-3.952,6.874,12.215,12.215,0,0,1-7.834,2.325,11.64,11.64,0,0,1-8.9-3.522q-3.32-3.52-3.316-9.749,0-6.3,3.327-9.807a11.822,11.822,0,0,1,9.008-3.51,12.28,12.28,0,0,1,7.388,2,11.068,11.068,0,0,1,3.941,6.1" transform="translate(31.651 11.926)"/>
    <path id="Tracé_44" data-name="Tracé 44" d="M625.178-892.421a6.489,6.489,0,0,0-1.509-4.445,4.631,4.631,0,0,0-3.5-1.52,4.669,4.669,0,0,0-3.64,1.605,6.206,6.206,0,0,0-1.413,4.359Zm-.384,6.8,6.707,1.124a11.017,11.017,0,0,1-4.083,5.619,12,12,0,0,1-6.983,1.927q-6.635,0-9.82-4.335a14.555,14.555,0,0,1-2.515-8.768q0-6.323,3.3-9.9a10.9,10.9,0,0,1,8.362-3.581,11.281,11.281,0,0,1,8.957,3.75q3.282,3.747,3.138,11.483H615a6.815,6.815,0,0,0,1.629,4.66,5.1,5.1,0,0,0,3.879,1.663,4.113,4.113,0,0,0,2.659-.862,5.318,5.318,0,0,0,1.629-2.777" transform="translate(38.119 11.926)"/>
    <path id="Tracé_45" data-name="Tracé 45" d="M503.8-928.008h3.737v-1.918a12.788,12.788,0,0,1,.681-4.789,5.4,5.4,0,0,1,2.515-2.576,9.676,9.676,0,0,1,4.637-1,18.7,18.7,0,0,1,5.628.865l-.912,4.7A13.266,13.266,0,0,0,517-933.11a2.748,2.748,0,0,0-2.1.683,3.937,3.937,0,0,0-.635,2.62v1.8h5.03v5.292h-5.03v20.146h-6.732v-20.146H503.8Z" transform="translate(4.941 0.871)"/>
    <path id="Tracé_46" data-name="Tracé 46" d="M534.953-917.469a6.487,6.487,0,0,0-1.509-4.442,4.625,4.625,0,0,0-3.5-1.522,4.677,4.677,0,0,0-3.641,1.605,6.214,6.214,0,0,0-1.413,4.359Zm-13.295-13.748,5.031-7.066h6.225l4.96,7.066h-5.414l-2.78-3.571-2.587,3.571Zm12.911,20.551,6.705,1.126a11.005,11.005,0,0,1-4.082,5.618,12.007,12.007,0,0,1-6.983,1.928q-6.635,0-9.82-4.337a14.553,14.553,0,0,1-2.515-8.767q0-6.323,3.3-9.9a10.891,10.891,0,0,1,8.36-3.581,11.291,11.291,0,0,1,8.959,3.749q3.284,3.749,3.138,11.485H524.772a6.814,6.814,0,0,0,1.629,4.658,5.091,5.091,0,0,0,3.88,1.663,4.114,4.114,0,0,0,2.659-.861,5.335,5.335,0,0,0,1.629-2.779" transform="translate(9.417 0.872)"/>
    <path id="Tracé_47" data-name="Tracé 47" d="M553.327-928.321v5.365h-4.6V-912.7a25.332,25.332,0,0,0,.133,3.629,1.47,1.47,0,0,0,.6.852,1.9,1.9,0,0,0,1.139.333,8.654,8.654,0,0,0,2.706-.646l.576,5.221a13.356,13.356,0,0,1-5.32,1.006,8.4,8.4,0,0,1-3.28-.612,4.765,4.765,0,0,1-2.143-1.578,6.237,6.237,0,0,1-.946-2.624,32.391,32.391,0,0,1-.216-4.744v-11.09h-3.091v-5.365h3.091v-5.054l6.754-3.931v8.984Z" transform="translate(16.1 1.184)"/>
    <path id="Tracé_48" data-name="Tracé 48" d="M569.9-919.811a6.474,6.474,0,0,0-1.509-4.442,4.624,4.624,0,0,0-3.5-1.522,4.674,4.674,0,0,0-3.639,1.605,6.215,6.215,0,0,0-1.413,4.359Zm-.384,6.8,6.707,1.126a11.011,11.011,0,0,1-4.082,5.618,12.008,12.008,0,0,1-6.985,1.928q-6.636,0-9.82-4.337a14.562,14.562,0,0,1-2.515-8.767q0-6.323,3.3-9.9a10.892,10.892,0,0,1,8.359-3.581,11.3,11.3,0,0,1,8.959,3.749q3.284,3.749,3.139,11.485H559.723a6.807,6.807,0,0,0,1.629,4.658,5.09,5.09,0,0,0,3.879,1.664,4.112,4.112,0,0,0,2.659-.861,5.327,5.327,0,0,0,1.629-2.779" transform="translate(20.535 3.214)"/>
    <path id="Tracé_49" data-name="Tracé 49" d="M581.981-913.585a6.748,6.748,0,0,0,.651,3.413,2.946,2.946,0,0,0,2.636,1.525,2.868,2.868,0,0,0,2.288-1.144,5.267,5.267,0,0,0,.944-3.418,5.77,5.77,0,0,0-.917-3.655,2.9,2.9,0,0,0-2.344-1.118,2.924,2.924,0,0,0-2.323,1.1,4.986,4.986,0,0,0-.936,3.293m10.4,7.685h-3.622v-2.166a5.847,5.847,0,0,1-2.128,1.884,5.486,5.486,0,0,1-2.477.615,5.612,5.612,0,0,1-4.347-2.046,8.32,8.32,0,0,1-1.81-5.709,8.217,8.217,0,0,1,1.762-5.693,5.74,5.74,0,0,1,4.45-1.949,5.514,5.514,0,0,1,4.272,2.054v-7.325h3.9Z" transform="translate(28.544 4.705)"/>
    <path id="Tracé_50" data-name="Tracé 50" d="M600.848-915.8a3.744,3.744,0,0,0-.873-2.573,2.684,2.684,0,0,0-2.026-.88,2.707,2.707,0,0,0-2.106.928,3.6,3.6,0,0,0-.818,2.525Zm-.221,3.939,3.882.65a6.355,6.355,0,0,1-2.365,3.253,6.92,6.92,0,0,1-4.04,1.118,6.6,6.6,0,0,1-5.688-2.51,8.441,8.441,0,0,1-1.455-5.076,8.138,8.138,0,0,1,1.914-5.736,6.3,6.3,0,0,1,4.84-2.075,6.544,6.544,0,0,1,5.187,2.171q1.9,2.171,1.815,6.653h-9.762a3.938,3.938,0,0,0,.944,2.7,2.949,2.949,0,0,0,2.246.966,2.382,2.382,0,0,0,1.538-.5,3.081,3.081,0,0,0,.944-1.607" transform="translate(32.667 5.977)"/>
    <rect id="Rectangle_589" data-name="Rectangle 589" width="3.898" height="20.335" transform="translate(648.458 -921.53)"/>
    <path id="Tracé_51" data-name="Tracé 51" d="M624.161-914.247q-.747.249-2.373.6a7.142,7.142,0,0,0-2.119.68,1.621,1.621,0,0,0-.766,1.373,1.917,1.917,0,0,0,.61,1.413,2.14,2.14,0,0,0,1.555.6,3.382,3.382,0,0,0,2.01-.693,2.445,2.445,0,0,0,.931-1.29,7.712,7.712,0,0,0,.152-1.9Zm-5.216-3.162-3.535-.638a5.505,5.505,0,0,1,2.051-3.162,7.5,7.5,0,0,1,4.327-1.027,9.333,9.333,0,0,1,3.885.617,3.9,3.9,0,0,1,1.8,1.567,8.093,8.093,0,0,1,.519,3.488l-.042,4.551a15.8,15.8,0,0,0,.186,2.864,8.461,8.461,0,0,0,.7,1.976h-3.856c-.1-.258-.227-.643-.376-1.152-.063-.232-.109-.384-.138-.456a7.084,7.084,0,0,1-2.135,1.457,6.155,6.155,0,0,1-2.427.485,5.018,5.018,0,0,1-3.587-1.235,4.11,4.11,0,0,1-1.309-3.123,4.19,4.19,0,0,1,.594-2.226,3.9,3.9,0,0,1,1.671-1.5,13.084,13.084,0,0,1,3.1-.909,21.036,21.036,0,0,0,3.786-.957v-.389a2.023,2.023,0,0,0-.554-1.6,3.327,3.327,0,0,0-2.1-.48,2.764,2.764,0,0,0-1.621.411,2.822,2.822,0,0,0-.944,1.434" transform="translate(40.317 5.977)"/>
    <path id="Tracé_52" data-name="Tracé 52" d="M533.623-907.063a5.29,5.29,0,0,1,5.29-5.291,5.291,5.291,0,0,1,5.291,5.291,5.29,5.29,0,0,1-5.291,5.29,5.288,5.288,0,0,1-5.29-5.29" transform="translate(14.427 9.121)" fill="#009f3b"/>
    <path id="Tracé_53" data-name="Tracé 53" d="M506.02-890.583a3.2,3.2,0,0,0-.73-2.12,5.888,5.888,0,0,0-2.552-1.523c-.265-.091-.638-.206-1.115-.341a6.022,6.022,0,0,0-1.674,4.176,6.03,6.03,0,0,0,1.861,4.36,6.027,6.027,0,0,0,2.474-1.163,4.313,4.313,0,0,0,1.736-3.39" transform="translate(3.714 14.78)" fill="#009f3b"/>
    <path id="Tracé_54" data-name="Tracé 54" d="M594.536-886.133c.049.058.1.109.15.165a6.045,6.045,0,0,0,4.5-5.845,6.049,6.049,0,0,0-5.076-5.967,10.147,10.147,0,0,0-1.094,5.25q0,4.528,1.52,6.4" transform="translate(33.321 13.758)" fill="#009f3b"/>
    <g id="Groupe_26" data-name="Groupe 26" transform="translate(601.349 -941.026)">
      <path id="Tracé_55" data-name="Tracé 55" d="M574.192-937.012v-3.964h1.284a4.807,4.807,0,0,1,.953.059,1.046,1.046,0,0,1,.569.389,1.23,1.23,0,0,1,.229.771,1.3,1.3,0,0,1-.132.614,1.086,1.086,0,0,1-.336.39,1.124,1.124,0,0,1-.417.187,4.51,4.51,0,0,1-.829.057h-.522v1.5Zm.8-3.293v1.124h.439a2.091,2.091,0,0,0,.631-.062.522.522,0,0,0,.25-.2.532.532,0,0,0,.091-.308.506.506,0,0,0-.128-.356.553.553,0,0,0-.322-.177,3.97,3.97,0,0,0-.575-.026Z" transform="translate(-574.017 941.042)"/>
      <path id="Tracé_56" data-name="Tracé 56" d="M577.606-939.255l-.691-.124a1.075,1.075,0,0,1,.4-.616,1.458,1.458,0,0,1,.844-.2,1.814,1.814,0,0,1,.757.12.756.756,0,0,1,.351.3,1.577,1.577,0,0,1,.1.681l-.008.886a3.184,3.184,0,0,0,.036.559,1.635,1.635,0,0,0,.137.385h-.753c-.018-.05-.044-.125-.073-.225a.659.659,0,0,0-.028-.088,1.339,1.339,0,0,1-.415.283,1.188,1.188,0,0,1-.473.095.977.977,0,0,1-.7-.241.794.794,0,0,1-.256-.608.8.8,0,0,1,.117-.434.748.748,0,0,1,.326-.293,2.6,2.6,0,0,1,.6-.177,3.984,3.984,0,0,0,.737-.187v-.075a.392.392,0,0,0-.108-.312.646.646,0,0,0-.407-.092.545.545,0,0,0-.316.079A.55.55,0,0,0,577.606-939.255Zm1.015.617c-.1.032-.25.071-.461.116a1.424,1.424,0,0,0-.414.132.319.319,0,0,0-.149.268.371.371,0,0,0,.12.277.411.411,0,0,0,.3.116.65.65,0,0,0,.391-.136.464.464,0,0,0,.182-.25,1.445,1.445,0,0,0,.029-.37Z" transform="translate(-573.175 941.29)"/>
      <path id="Tracé_57" data-name="Tracé 57" d="M580.061-937.26H579.3v-2.871h.705v.409a1.2,1.2,0,0,1,.326-.381.593.593,0,0,1,.328-.092.966.966,0,0,1,.5.143l-.235.663a.666.666,0,0,0-.357-.125.426.426,0,0,0-.27.088.6.6,0,0,0-.174.318,4.527,4.527,0,0,0-.063.962Z" transform="translate(-572.391 941.29)"/>
      <path id="Tracé_58" data-name="Tracé 58" d="M582.128-937.012v-3.964h.759v3.964Z" transform="translate(-571.492 941.042)"/>
      <path id="Tracé_59" data-name="Tracé 59" d="M585.011-938.174l.757.128a1.235,1.235,0,0,1-.461.634,1.351,1.351,0,0,1-.787.217,1.285,1.285,0,0,1-1.109-.489,1.643,1.643,0,0,1-.285-.99,1.588,1.588,0,0,1,.373-1.118,1.234,1.234,0,0,1,.944-.4,1.282,1.282,0,0,1,1.012.422,1.884,1.884,0,0,1,.353,1.3h-1.9a.774.774,0,0,0,.183.526.575.575,0,0,0,.438.187.475.475,0,0,0,.3-.1A.608.608,0,0,0,585.011-938.174Zm.043-.767a.727.727,0,0,0-.171-.5.522.522,0,0,0-.394-.171.527.527,0,0,0-.41.181.7.7,0,0,0-.159.492Z" transform="translate(-571.175 941.29)"/>
      <path id="Tracé_60" data-name="Tracé 60" d="M586.755-940.13h.7v.392a1.13,1.13,0,0,1,.9-.456.951.951,0,0,1,.477.113.871.871,0,0,1,.333.343,1.308,1.308,0,0,1,.409-.343.985.985,0,0,1,.467-.113,1.041,1.041,0,0,1,.535.128.786.786,0,0,1,.327.377,1.656,1.656,0,0,1,.079.595v1.836h-.759V-938.9a1.227,1.227,0,0,0-.079-.551.359.359,0,0,0-.324-.162.512.512,0,0,0-.3.1.546.546,0,0,0-.2.286,2.075,2.075,0,0,0-.062.593v1.379h-.759v-1.574a2.143,2.143,0,0,0-.041-.54.342.342,0,0,0-.125-.18.4.4,0,0,0-.231-.06.568.568,0,0,0-.318.094.521.521,0,0,0-.2.273,2.03,2.03,0,0,0-.061.593v1.395h-.759Z" transform="translate(-570.02 941.29)"/>
      <path id="Tracé_61" data-name="Tracé 61" d="M590.532-940.271v-.7h.759v.7Zm0,3.26v-2.871h.759v2.871Z" transform="translate(-568.819 941.042)"/>
      <path id="Tracé_62" data-name="Tracé 62" d="M594.312-937.26h-.759v-1.466a2.162,2.162,0,0,0-.05-.6.417.417,0,0,0-.157-.212.453.453,0,0,0-.264-.075.6.6,0,0,0-.353.108.537.537,0,0,0-.216.286,2.5,2.5,0,0,0-.058.659v1.3h-.761v-2.871h.706v.422a1.149,1.149,0,0,1,.946-.486,1.143,1.143,0,0,1,.46.091.769.769,0,0,1,.314.231.806.806,0,0,1,.149.319,2.372,2.372,0,0,1,.042.51Z" transform="translate(-568.449 941.29)"/>
      <path id="Tracé_63" data-name="Tracé 63" d="M594.265-940.271v-.7h.759v.7Zm0,3.26v-2.871h.759v2.871Z" transform="translate(-567.631 941.042)"/>
      <path id="Tracé_64" data-name="Tracé 64" d="M595.229-938.079l.762-.116a.557.557,0,0,0,.2.337.669.669,0,0,0,.417.115.756.756,0,0,0,.443-.108.243.243,0,0,0,.1-.2.2.2,0,0,0-.054-.144.636.636,0,0,0-.256-.1,4.071,4.071,0,0,1-1.165-.37.741.741,0,0,1-.339-.646.794.794,0,0,1,.294-.626,1.372,1.372,0,0,1,.913-.254,1.6,1.6,0,0,1,.877.191.981.981,0,0,1,.393.568l-.714.132a.444.444,0,0,0-.175-.256.631.631,0,0,0-.367-.09.831.831,0,0,0-.43.083.181.181,0,0,0-.086.154.167.167,0,0,0,.075.138,2.906,2.906,0,0,0,.709.214,2.118,2.118,0,0,1,.847.337.7.7,0,0,1,.239.566.869.869,0,0,1-.33.679,1.466,1.466,0,0,1-.977.283,1.6,1.6,0,0,1-.929-.239A1.087,1.087,0,0,1,595.229-938.079Z" transform="translate(-567.324 941.29)"/>
      <path id="Tracé_65" data-name="Tracé 65" d="M599.159-939.9v.6h-.519v1.157a2.683,2.683,0,0,0,.016.409.159.159,0,0,0,.067.1.207.207,0,0,0,.128.038,1.009,1.009,0,0,0,.306-.073l.065.589a1.523,1.523,0,0,1-.6.113.968.968,0,0,1-.369-.068.531.531,0,0,1-.241-.179.682.682,0,0,1-.108-.3,3.785,3.785,0,0,1-.024-.535V-939.3h-.349v-.6h.349v-.571l.762-.443v1.014Z" transform="translate(-566.593 941.061)"/>
      <path id="Tracé_66" data-name="Tracé 66" d="M600.882-937.91l.757.128a1.228,1.228,0,0,1-.461.634,1.351,1.351,0,0,1-.787.218,1.286,1.286,0,0,1-1.109-.489,1.642,1.642,0,0,1-.285-.99,1.587,1.587,0,0,1,.373-1.118,1.234,1.234,0,0,1,.944-.4,1.281,1.281,0,0,1,1.012.422,1.884,1.884,0,0,1,.353,1.3h-1.9a.766.766,0,0,0,.185.526.571.571,0,0,0,.438.187.471.471,0,0,0,.3-.1A.6.6,0,0,0,600.882-937.91Zm-.159-2.308h-.479l-.746-.808h.85Zm.2,1.541a.728.728,0,0,0-.171-.5.522.522,0,0,0-.394-.171.528.528,0,0,0-.41.181.7.7,0,0,0-.159.492Z" transform="translate(-566.126 941.026)"/>
      <path id="Tracé_67" data-name="Tracé 67" d="M602.237-937.26h-.759v-2.871h.705v.409a1.2,1.2,0,0,1,.326-.381.593.593,0,0,1,.328-.092.966.966,0,0,1,.5.143l-.235.663a.674.674,0,0,0-.359-.125.429.429,0,0,0-.27.088.612.612,0,0,0-.173.318,4.441,4.441,0,0,0-.063.962Z" transform="translate(-565.336 941.29)"/>
      <path id="Tracé_68" data-name="Tracé 68" d="M604.852-938.174l.758.128a1.242,1.242,0,0,1-.461.634,1.353,1.353,0,0,1-.788.217,1.284,1.284,0,0,1-1.107-.489,1.642,1.642,0,0,1-.285-.99,1.582,1.582,0,0,1,.373-1.118,1.232,1.232,0,0,1,.944-.4,1.277,1.277,0,0,1,1.011.422,1.877,1.877,0,0,1,.355,1.3h-1.9a.761.761,0,0,0,.183.526.573.573,0,0,0,.438.187.475.475,0,0,0,.3-.1A.606.606,0,0,0,604.852-938.174Zm.045-.767a.728.728,0,0,0-.171-.5.522.522,0,0,0-.394-.171.53.53,0,0,0-.411.181.7.7,0,0,0-.16.492Z" transform="translate(-564.862 941.29)"/>
      <path id="Tracé_69" data-name="Tracé 69" d="M576.862-931.971h-.706v-.422a1.136,1.136,0,0,1-.414.366,1.078,1.078,0,0,1-.482.12,1.1,1.1,0,0,1-.849-.4,1.622,1.622,0,0,1-.352-1.111,1.605,1.605,0,0,1,.343-1.11,1.122,1.122,0,0,1,.869-.38,1.073,1.073,0,0,1,.832.4v-1.428h.76Zm-2.029-1.5a1.316,1.316,0,0,0,.128.664.576.576,0,0,0,.514.3.56.56,0,0,0,.446-.223,1.04,1.04,0,0,0,.183-.667,1.128,1.128,0,0,0-.178-.712.562.562,0,0,0-.456-.217.569.569,0,0,0-.453.215A.964.964,0,0,0,574.834-933.469Z" transform="translate(-574.059 942.646)"/>
      <path id="Tracé_70" data-name="Tracé 70" d="M578.47-933.134l.757.128a1.235,1.235,0,0,1-.461.634,1.351,1.351,0,0,1-.787.217,1.284,1.284,0,0,1-1.109-.489,1.641,1.641,0,0,1-.285-.99,1.588,1.588,0,0,1,.373-1.118,1.234,1.234,0,0,1,.944-.4,1.278,1.278,0,0,1,1.012.423,1.88,1.88,0,0,1,.353,1.3h-1.9a.772.772,0,0,0,.183.526.575.575,0,0,0,.438.187.467.467,0,0,0,.3-.1A.608.608,0,0,0,578.47-933.134Zm.043-.767a.727.727,0,0,0-.171-.5.521.521,0,0,0-.394-.171.527.527,0,0,0-.41.181.7.7,0,0,0-.159.492Z" transform="translate(-573.256 942.894)"/>
      <path id="Tracé_71" data-name="Tracé 71" d="M580.257-931.971v-3.964h.759v3.964Z" transform="translate(-572.087 942.646)"/>
      <path id="Tracé_72" data-name="Tracé 72" d="M581.424-935.926h.759v.543a1.871,1.871,0,0,1-.057.519.769.769,0,0,1-.215.343,1.1,1.1,0,0,1-.4.237l-.149-.312a.639.639,0,0,0,.327-.208.626.626,0,0,0,.1-.362h-.368Z" transform="translate(-571.736 942.648)"/>
      <path id="Tracé_73" data-name="Tracé 73" d="M582.6-931.971v-3.964h2.938v.671h-2.139v.878h1.99v.668h-1.99v1.078h2.214v.668Z" transform="translate(-571.344 942.646)"/>
      <path id="Tracé_74" data-name="Tracé 74" d="M588-932.219h-.759v-1.466a2.236,2.236,0,0,0-.049-.6.432.432,0,0,0-.157-.212.458.458,0,0,0-.265-.075.6.6,0,0,0-.353.108.533.533,0,0,0-.215.286,2.436,2.436,0,0,0-.058.659v1.3h-.761v-2.871h.706v.422a1.148,1.148,0,0,1,.946-.486,1.13,1.13,0,0,1,.459.091.763.763,0,0,1,.315.231.843.843,0,0,1,.149.319A2.482,2.482,0,0,1,588-934Z" transform="translate(-570.455 942.894)"/>
      <path id="Tracé_75" data-name="Tracé 75" d="M587.755-933.039l.762-.116a.557.557,0,0,0,.2.337.673.673,0,0,0,.418.115.758.758,0,0,0,.443-.108.242.242,0,0,0,.1-.2.2.2,0,0,0-.054-.144.625.625,0,0,0-.254-.1,4.076,4.076,0,0,1-1.165-.37.739.739,0,0,1-.34-.646.791.791,0,0,1,.3-.626,1.365,1.365,0,0,1,.912-.255,1.6,1.6,0,0,1,.877.191.983.983,0,0,1,.394.568l-.716.132a.449.449,0,0,0-.175-.256.623.623,0,0,0-.365-.09.825.825,0,0,0-.43.083.183.183,0,0,0-.087.154.168.168,0,0,0,.076.138,2.853,2.853,0,0,0,.709.214,2.119,2.119,0,0,1,.846.337.7.7,0,0,1,.239.565.869.869,0,0,1-.33.679,1.464,1.464,0,0,1-.975.283,1.6,1.6,0,0,1-.929-.239A1.09,1.09,0,0,1,587.755-933.039Z" transform="translate(-569.702 942.894)"/>
      <path id="Tracé_76" data-name="Tracé 76" d="M592.01-933.134l.757.128a1.235,1.235,0,0,1-.461.634,1.351,1.351,0,0,1-.787.217,1.284,1.284,0,0,1-1.109-.489,1.641,1.641,0,0,1-.285-.99,1.588,1.588,0,0,1,.373-1.118,1.234,1.234,0,0,1,.944-.4,1.278,1.278,0,0,1,1.012.423,1.879,1.879,0,0,1,.353,1.3h-1.9a.773.773,0,0,0,.183.526.575.575,0,0,0,.438.187.464.464,0,0,0,.3-.1A.607.607,0,0,0,592.01-933.134Zm.044-.767a.728.728,0,0,0-.171-.5.521.521,0,0,0-.394-.171.527.527,0,0,0-.41.181.7.7,0,0,0-.159.492Z" transform="translate(-568.948 942.894)"/>
      <path id="Tracé_77" data-name="Tracé 77" d="M592.63-935.231v-.7h.759v.7Zm0,3.26v-2.871h.759v2.871Z" transform="translate(-568.151 942.646)"/>
      <path id="Tracé_78" data-name="Tracé 78" d="M593.767-932.031l.867.105a.291.291,0,0,0,.1.208.565.565,0,0,0,.339.082.887.887,0,0,0,.447-.09.362.362,0,0,0,.152-.193,1.136,1.136,0,0,0,.036-.348v-.419a1.031,1.031,0,0,1-.861.465,1.06,1.06,0,0,1-.916-.489,1.665,1.665,0,0,1-.265-.962,1.58,1.58,0,0,1,.348-1.1,1.118,1.118,0,0,1,.863-.381,1.055,1.055,0,0,1,.879.467v-.4h.711v2.576a2.588,2.588,0,0,1-.083.759.945.945,0,0,1-.236.4,1.04,1.04,0,0,1-.4.224,2.121,2.121,0,0,1-.638.082,1.652,1.652,0,0,1-1.036-.25.783.783,0,0,1-.306-.634C593.764-931.964,593.766-931.994,593.767-932.031Zm.679-1.683a1.029,1.029,0,0,0,.178.668.542.542,0,0,0,.436.212.6.6,0,0,0,.469-.217.942.942,0,0,0,.193-.645,1,1,0,0,0-.183-.662.585.585,0,0,0-.467-.216.554.554,0,0,0-.448.212A.99.99,0,0,0,594.446-933.714Z" transform="translate(-567.821 942.894)"/>
      <path id="Tracé_79" data-name="Tracé 79" d="M598.975-932.219h-.759v-1.466a2.16,2.16,0,0,0-.05-.6.416.416,0,0,0-.157-.212.454.454,0,0,0-.264-.075.6.6,0,0,0-.353.108.533.533,0,0,0-.215.286,2.432,2.432,0,0,0-.058.659v1.3h-.762v-2.871h.708v.422a1.145,1.145,0,0,1,.945-.486,1.142,1.142,0,0,1,.46.091.758.758,0,0,1,.314.231.827.827,0,0,1,.15.319,2.481,2.481,0,0,1,.041.51Z" transform="translate(-566.966 942.894)"/>
      <path id="Tracé_80" data-name="Tracé 80" d="M600.643-933.134l.758.128a1.243,1.243,0,0,1-.461.634,1.353,1.353,0,0,1-.788.217,1.284,1.284,0,0,1-1.107-.489,1.641,1.641,0,0,1-.285-.99,1.588,1.588,0,0,1,.373-1.118,1.232,1.232,0,0,1,.944-.4,1.274,1.274,0,0,1,1.011.423,1.874,1.874,0,0,1,.355,1.3h-1.9a.767.767,0,0,0,.183.526.573.573,0,0,0,.438.187.467.467,0,0,0,.3-.1A.607.607,0,0,0,600.643-933.134Zm.045-.767a.727.727,0,0,0-.171-.5.521.521,0,0,0-.394-.171.53.53,0,0,0-.411.181.7.7,0,0,0-.16.492Z" transform="translate(-566.201 942.894)"/>
      <path id="Tracé_81" data-name="Tracé 81" d="M601.221-935.09h.7v.391a1.128,1.128,0,0,1,.9-.456.972.972,0,0,1,.477.114.879.879,0,0,1,.333.343,1.317,1.317,0,0,1,.407-.343,1.01,1.01,0,0,1,.468-.114,1.042,1.042,0,0,1,.535.128.785.785,0,0,1,.327.377,1.654,1.654,0,0,1,.079.594v1.836h-.759v-1.641a1.229,1.229,0,0,0-.079-.551.362.362,0,0,0-.324-.162.519.519,0,0,0-.3.1.544.544,0,0,0-.2.286,2.075,2.075,0,0,0-.062.593v1.379h-.759v-1.574a2.216,2.216,0,0,0-.041-.54.349.349,0,0,0-.125-.181.4.4,0,0,0-.232-.059.561.561,0,0,0-.316.094.521.521,0,0,0-.2.273,2.026,2.026,0,0,0-.061.593v1.395h-.759Z" transform="translate(-565.418 942.894)"/>
      <path id="Tracé_82" data-name="Tracé 82" d="M606.714-933.134l.757.128a1.228,1.228,0,0,1-.461.634,1.351,1.351,0,0,1-.787.217,1.286,1.286,0,0,1-1.109-.489,1.641,1.641,0,0,1-.285-.99,1.588,1.588,0,0,1,.373-1.118,1.234,1.234,0,0,1,.944-.4,1.278,1.278,0,0,1,1.012.423,1.88,1.88,0,0,1,.353,1.3h-1.9a.768.768,0,0,0,.185.526.571.571,0,0,0,.438.187.463.463,0,0,0,.3-.1A.6.6,0,0,0,606.714-933.134Zm.044-.767a.728.728,0,0,0-.171-.5.521.521,0,0,0-.394-.171.527.527,0,0,0-.41.181.7.7,0,0,0-.159.492Z" transform="translate(-564.27 942.894)"/>
      <path id="Tracé_83" data-name="Tracé 83" d="M609.946-932.219h-.759v-1.466a2.182,2.182,0,0,0-.049-.6.416.416,0,0,0-.157-.212.456.456,0,0,0-.263-.075.607.607,0,0,0-.355.108.535.535,0,0,0-.215.286,2.5,2.5,0,0,0-.058.659v1.3h-.761v-2.871h.707v.422a1.149,1.149,0,0,1,.946-.486,1.142,1.142,0,0,1,.46.091.767.767,0,0,1,.314.231.809.809,0,0,1,.149.319,2.4,2.4,0,0,1,.041.51Z" transform="translate(-563.475 942.894)"/>
      <path id="Tracé_84" data-name="Tracé 84" d="M611.29-934.861v.6h-.518v1.157a2.727,2.727,0,0,0,.016.41.157.157,0,0,0,.066.095.213.213,0,0,0,.129.038.97.97,0,0,0,.306-.073l.065.589a1.523,1.523,0,0,1-.6.113.944.944,0,0,1-.369-.069.535.535,0,0,1-.242-.179.7.7,0,0,1-.107-.3,3.784,3.784,0,0,1-.024-.535v-1.252h-.349v-.6h.349v-.571l.762-.443v1.014Z" transform="translate(-562.733 942.665)"/>
      <path id="Tracé_85" data-name="Tracé 85" d="M612.262-933.039l.762-.116a.556.556,0,0,0,.2.337.671.671,0,0,0,.418.115.762.762,0,0,0,.443-.108.245.245,0,0,0,.1-.2.2.2,0,0,0-.054-.144.633.633,0,0,0-.256-.1,4.078,4.078,0,0,1-1.164-.37.739.739,0,0,1-.34-.646.794.794,0,0,1,.294-.626,1.371,1.371,0,0,1,.913-.255,1.6,1.6,0,0,1,.876.191.988.988,0,0,1,.394.568l-.716.132a.449.449,0,0,0-.175-.256.626.626,0,0,0-.365-.09.833.833,0,0,0-.431.083.181.181,0,0,0-.086.154.168.168,0,0,0,.076.138,2.853,2.853,0,0,0,.709.214,2.118,2.118,0,0,1,.846.337.706.706,0,0,1,.239.565.869.869,0,0,1-.329.679,1.464,1.464,0,0,1-.975.283,1.593,1.593,0,0,1-.929-.239A1.083,1.083,0,0,1,612.262-933.039Z" transform="translate(-561.906 942.894)"/>
      <path id="Tracé_86" data-name="Tracé 86" d="M616.694-932.235v-.43a1.109,1.109,0,0,1-.413.363,1.173,1.173,0,0,1-.539.132,1.046,1.046,0,0,1-.519-.128.749.749,0,0,1-.332-.356,1.592,1.592,0,0,1-.1-.635v-1.816h.759v1.32a3.678,3.678,0,0,0,.042.742.4.4,0,0,0,.153.216.477.477,0,0,0,.282.079.6.6,0,0,0,.348-.107.542.542,0,0,0,.21-.265,2.962,2.962,0,0,0,.058-.774v-1.211h.761v2.871Z" transform="translate(-561.102 942.909)"/>
      <path id="Tracé_87" data-name="Tracé 87" d="M617.35-935.09h.708v.422a1.052,1.052,0,0,1,.373-.352,1.033,1.033,0,0,1,.521-.135,1.1,1.1,0,0,1,.85.392,1.589,1.589,0,0,1,.349,1.093,1.629,1.629,0,0,1-.353,1.116,1.093,1.093,0,0,1-.85.4.969.969,0,0,1-.432-.095,1.473,1.473,0,0,1-.406-.324v1.446h-.759Zm.751,1.387a1.1,1.1,0,0,0,.191.714.587.587,0,0,0,.468.232.547.547,0,0,0,.44-.213,1.086,1.086,0,0,0,.177-.695,1.035,1.035,0,0,0-.182-.671.559.559,0,0,0-.448-.219.581.581,0,0,0-.463.215A.955.955,0,0,0,618.1-933.7Z" transform="translate(-560.287 942.894)"/>
      <path id="Tracé_88" data-name="Tracé 88" d="M621.647-932.87l.758.128a1.243,1.243,0,0,1-.461.634,1.352,1.352,0,0,1-.788.217,1.282,1.282,0,0,1-1.107-.489,1.642,1.642,0,0,1-.285-.99,1.582,1.582,0,0,1,.373-1.118,1.232,1.232,0,0,1,.944-.4,1.274,1.274,0,0,1,1.011.423,1.872,1.872,0,0,1,.355,1.3h-1.9a.761.761,0,0,0,.183.526.573.573,0,0,0,.438.187.467.467,0,0,0,.3-.1A.607.607,0,0,0,621.647-932.87Zm.045-.767a.728.728,0,0,0-.171-.5.522.522,0,0,0-.394-.171.53.53,0,0,0-.411.181.7.7,0,0,0-.159.492Zm-.971-1.541.373-.808h.852l-.743.808Z" transform="translate(-559.519 942.629)"/>
      <path id="Tracé_89" data-name="Tracé 89" d="M623-932.219h-.759v-2.871h.705v.409a1.2,1.2,0,0,1,.326-.381.6.6,0,0,1,.328-.092.965.965,0,0,1,.5.142l-.233.663a.674.674,0,0,0-.359-.125.429.429,0,0,0-.27.088.6.6,0,0,0-.174.318,4.531,4.531,0,0,0-.063.962Z" transform="translate(-558.73 942.894)"/>
      <path id="Tracé_90" data-name="Tracé 90" d="M623.9-935.231v-.7h.761v.7Zm0,3.26v-2.871h.761v2.871Z" transform="translate(-558.203 942.646)"/>
      <path id="Tracé_91" data-name="Tracé 91" d="M626.785-933.134l.757.128a1.233,1.233,0,0,1-.46.634,1.356,1.356,0,0,1-.788.217,1.286,1.286,0,0,1-1.109-.489,1.651,1.651,0,0,1-.285-.99,1.583,1.583,0,0,1,.374-1.118,1.229,1.229,0,0,1,.942-.4,1.277,1.277,0,0,1,1.012.423,1.88,1.88,0,0,1,.354,1.3h-1.9a.766.766,0,0,0,.185.526.572.572,0,0,0,.438.187.461.461,0,0,0,.3-.1A.6.6,0,0,0,626.785-933.134Zm.043-.767a.728.728,0,0,0-.171-.5.519.519,0,0,0-.393-.171.53.53,0,0,0-.411.181.7.7,0,0,0-.159.492Z" transform="translate(-557.885 942.894)"/>
      <path id="Tracé_92" data-name="Tracé 92" d="M629.3-932.235v-.43a1.113,1.113,0,0,1-.414.363,1.168,1.168,0,0,1-.539.132,1.044,1.044,0,0,1-.518-.128.735.735,0,0,1-.332-.356,1.591,1.591,0,0,1-.1-.635v-1.816h.759v1.32a3.569,3.569,0,0,0,.042.742.4.4,0,0,0,.152.216.479.479,0,0,0,.282.079.6.6,0,0,0,.349-.107.542.542,0,0,0,.21-.265,3.026,3.026,0,0,0,.058-.774v-1.211H630v2.871Z" transform="translate(-557.092 942.909)"/>
      <path id="Tracé_93" data-name="Tracé 93" d="M630.705-932.219h-.759v-2.871h.705v.409a1.186,1.186,0,0,1,.327-.381.594.594,0,0,1,.328-.092.964.964,0,0,1,.5.142l-.233.663a.674.674,0,0,0-.359-.125.429.429,0,0,0-.27.088.613.613,0,0,0-.174.318,4.539,4.539,0,0,0-.063.962Z" transform="translate(-556.28 942.894)"/>
      <path id="Tracé_94" data-name="Tracé 94" d="M576.862-926.932h-.706v-.421a1.129,1.129,0,0,1-.414.365,1.061,1.061,0,0,1-.482.121,1.1,1.1,0,0,1-.849-.4,1.625,1.625,0,0,1-.352-1.112,1.608,1.608,0,0,1,.343-1.11,1.123,1.123,0,0,1,.869-.38,1.071,1.071,0,0,1,.832.4v-1.427h.76Zm-2.029-1.5a1.31,1.31,0,0,0,.128.664.573.573,0,0,0,.514.3.556.556,0,0,0,.446-.223,1.036,1.036,0,0,0,.183-.666,1.13,1.13,0,0,0-.178-.713.562.562,0,0,0-.456-.217.57.57,0,0,0-.453.215A.967.967,0,0,0,574.834-928.43Z" transform="translate(-574.059 944.249)"/>
      <path id="Tracé_95" data-name="Tracé 95" d="M578.47-928.094l.757.128a1.247,1.247,0,0,1-.461.634,1.361,1.361,0,0,1-.787.217,1.284,1.284,0,0,1-1.109-.489,1.644,1.644,0,0,1-.285-.99,1.589,1.589,0,0,1,.373-1.118,1.231,1.231,0,0,1,.944-.4,1.278,1.278,0,0,1,1.012.423,1.882,1.882,0,0,1,.353,1.3h-1.9a.773.773,0,0,0,.183.526.572.572,0,0,0,.438.189.467.467,0,0,0,.3-.1A.6.6,0,0,0,578.47-928.094Zm.043-.767a.727.727,0,0,0-.171-.5.523.523,0,0,0-.394-.173.527.527,0,0,0-.41.181.7.7,0,0,0-.159.493Z" transform="translate(-573.256 944.497)"/>
      <path id="Tracé_96" data-name="Tracé 96" d="M580.257-926.932v-3.962h.759v3.962Z" transform="translate(-572.087 944.249)"/>
      <path id="Tracé_97" data-name="Tracé 97" d="M582.039-929.175l-.689-.125a1.073,1.073,0,0,1,.4-.615,1.459,1.459,0,0,1,.842-.2,1.816,1.816,0,0,1,.758.121.747.747,0,0,1,.349.3,1.555,1.555,0,0,1,.1.68l-.007.887a3.023,3.023,0,0,0,.036.558,1.631,1.631,0,0,0,.136.385h-.751c-.02-.05-.043-.125-.074-.224a.492.492,0,0,0-.026-.088,1.368,1.368,0,0,1-.417.283,1.182,1.182,0,0,1-.472.095.974.974,0,0,1-.7-.241.8.8,0,0,1-.257-.608.813.813,0,0,1,.117-.434.755.755,0,0,1,.326-.293,2.558,2.558,0,0,1,.6-.177,4.123,4.123,0,0,0,.738-.187v-.075a.391.391,0,0,0-.108-.312.648.648,0,0,0-.409-.094.539.539,0,0,0-.316.08A.567.567,0,0,0,582.039-929.175Zm1.016.616a4.345,4.345,0,0,1-.463.117,1.368,1.368,0,0,0-.413.132.319.319,0,0,0-.149.268.377.377,0,0,0,.119.277.419.419,0,0,0,.3.115.66.66,0,0,0,.391-.135.473.473,0,0,0,.182-.252,1.517,1.517,0,0,0,.029-.37Z" transform="translate(-571.765 944.497)"/>
      <path id="Tracé_98" data-name="Tracé 98" d="M584.933-926.932v-3.962h1.683a2.882,2.882,0,0,1,.923.107.9.9,0,0,1,.461.38,1.137,1.137,0,0,1,.174.625,1.059,1.059,0,0,1-.264.737,1.262,1.262,0,0,1-.783.366,1.826,1.826,0,0,1,.428.332,4.5,4.5,0,0,1,.456.643l.484.772h-.958l-.577-.862a5.606,5.606,0,0,0-.423-.583.619.619,0,0,0-.24-.165,1.333,1.333,0,0,0-.4-.045h-.162v1.654Zm.8-2.287h.591a3.021,3.021,0,0,0,.72-.049.428.428,0,0,0,.224-.167.513.513,0,0,0,.082-.3.474.474,0,0,0-.107-.323.488.488,0,0,0-.3-.156c-.065-.009-.258-.015-.583-.015h-.625Z" transform="translate(-570.6 944.249)"/>
      <path id="Tracé_99" data-name="Tracé 99" d="M589.676-928.094l.757.128a1.248,1.248,0,0,1-.461.634,1.362,1.362,0,0,1-.787.217,1.285,1.285,0,0,1-1.109-.489,1.644,1.644,0,0,1-.285-.99,1.588,1.588,0,0,1,.373-1.118,1.231,1.231,0,0,1,.944-.4,1.278,1.278,0,0,1,1.012.423,1.882,1.882,0,0,1,.353,1.3h-1.9a.772.772,0,0,0,.183.526.573.573,0,0,0,.439.189.464.464,0,0,0,.3-.1A.6.6,0,0,0,589.676-928.094Zm.044-.767a.728.728,0,0,0-.171-.5.523.523,0,0,0-.394-.173.527.527,0,0,0-.41.181.7.7,0,0,0-.159.493Z" transform="translate(-569.69 944.497)"/>
      <path id="Tracé_100" data-name="Tracé 100" d="M592.838-929.2l-.747.136a.55.55,0,0,0-.173-.339.519.519,0,0,0-.348-.113.565.565,0,0,0-.451.2,1,1,0,0,0-.17.655,1.16,1.16,0,0,0,.173.722.561.561,0,0,0,.46.211.515.515,0,0,0,.354-.123.742.742,0,0,0,.194-.423l.747.126a1.326,1.326,0,0,1-.447.775,1.38,1.38,0,0,1-.883.264,1.319,1.319,0,0,1-1.006-.4,1.543,1.543,0,0,1-.374-1.1,1.548,1.548,0,0,1,.376-1.106,1.334,1.334,0,0,1,1.018-.4,1.375,1.375,0,0,1,.833.227A1.239,1.239,0,0,1,592.838-929.2Z" transform="translate(-568.934 944.497)"/>
      <path id="Tracé_101" data-name="Tracé 101" d="M593.389-930.895v1.457a1.121,1.121,0,0,1,.878-.43,1.122,1.122,0,0,1,.473.1.773.773,0,0,1,.318.248.914.914,0,0,1,.146.336,2.987,2.987,0,0,1,.038.57v1.685h-.759v-1.516a2.316,2.316,0,0,0-.042-.573.39.39,0,0,0-.153-.194.5.5,0,0,0-.274-.071.627.627,0,0,0-.339.092.527.527,0,0,0-.217.277,1.691,1.691,0,0,0-.069.548v1.437h-.759v-3.962Z" transform="translate(-568.151 944.249)"/>
      <path id="Tracé_102" data-name="Tracé 102" d="M596.913-928.094l.756.128a1.245,1.245,0,0,1-.46.634,1.369,1.369,0,0,1-.788.217,1.286,1.286,0,0,1-1.109-.489,1.653,1.653,0,0,1-.285-.99,1.583,1.583,0,0,1,.374-1.118,1.226,1.226,0,0,1,.942-.4,1.276,1.276,0,0,1,1.012.423,1.882,1.882,0,0,1,.353,1.3h-1.9a.767.767,0,0,0,.184.526.57.57,0,0,0,.438.189.461.461,0,0,0,.3-.1A.6.6,0,0,0,596.913-928.094Zm.043-.767a.728.728,0,0,0-.171-.5.521.521,0,0,0-.394-.173.529.529,0,0,0-.41.181.7.7,0,0,0-.159.493Z" transform="translate(-567.388 944.497)"/>
      <path id="Tracé_103" data-name="Tracé 103" d="M598.268-927.18h-.759v-2.87h.705v.407a1.215,1.215,0,0,1,.326-.381.592.592,0,0,1,.328-.092.954.954,0,0,1,.5.144l-.235.662a.674.674,0,0,0-.357-.124.418.418,0,0,0-.27.088.592.592,0,0,0-.174.316,4.535,4.535,0,0,0-.063.962Z" transform="translate(-566.599 944.497)"/>
      <path id="Tracé_104" data-name="Tracé 104" d="M601.711-929.2l-.747.136a.544.544,0,0,0-.173-.339.519.519,0,0,0-.348-.113.564.564,0,0,0-.451.2,1,1,0,0,0-.17.655,1.161,1.161,0,0,0,.173.722.561.561,0,0,0,.46.211.513.513,0,0,0,.355-.123.742.742,0,0,0,.194-.423l.747.126a1.326,1.326,0,0,1-.447.775,1.38,1.38,0,0,1-.883.264,1.318,1.318,0,0,1-1.006-.4,1.543,1.543,0,0,1-.374-1.1,1.548,1.548,0,0,1,.376-1.106,1.334,1.334,0,0,1,1.018-.4,1.375,1.375,0,0,1,.833.227A1.238,1.238,0,0,1,601.711-929.2Z" transform="translate(-566.112 944.497)"/>
      <path id="Tracé_105" data-name="Tracé 105" d="M602.261-930.895v1.457a1.121,1.121,0,0,1,.878-.43,1.132,1.132,0,0,1,.474.1.779.779,0,0,1,.316.248.894.894,0,0,1,.146.336,3,3,0,0,1,.038.57v1.685h-.759v-1.516a2.318,2.318,0,0,0-.042-.573.382.382,0,0,0-.153-.194.5.5,0,0,0-.274-.071.627.627,0,0,0-.339.092.527.527,0,0,0-.217.277,1.692,1.692,0,0,0-.069.548v1.437H601.5v-3.962Z" transform="translate(-565.329 944.249)"/>
      <path id="Tracé_106" data-name="Tracé 106" d="M605.785-928.094l.757.128a1.245,1.245,0,0,1-.46.634,1.366,1.366,0,0,1-.788.217,1.286,1.286,0,0,1-1.108-.489,1.653,1.653,0,0,1-.285-.99,1.583,1.583,0,0,1,.374-1.118,1.226,1.226,0,0,1,.942-.4,1.277,1.277,0,0,1,1.012.423,1.882,1.882,0,0,1,.354,1.3h-1.9a.766.766,0,0,0,.185.526.57.57,0,0,0,.438.189.461.461,0,0,0,.3-.1A.6.6,0,0,0,605.785-928.094Zm.043-.767a.727.727,0,0,0-.171-.5.52.52,0,0,0-.393-.173.53.53,0,0,0-.411.181.7.7,0,0,0-.16.493Z" transform="translate(-564.566 944.497)"/>
      <path id="Tracé_107" data-name="Tracé 107" d="M609.288-928.094l.757.128a1.245,1.245,0,0,1-.46.634,1.369,1.369,0,0,1-.788.217,1.286,1.286,0,0,1-1.108-.489,1.652,1.652,0,0,1-.285-.99,1.583,1.583,0,0,1,.374-1.118,1.226,1.226,0,0,1,.942-.4,1.276,1.276,0,0,1,1.012.423,1.882,1.882,0,0,1,.353,1.3h-1.9a.766.766,0,0,0,.184.526.57.57,0,0,0,.438.189.461.461,0,0,0,.3-.1A.6.6,0,0,0,609.288-928.094Zm.043-.767a.728.728,0,0,0-.171-.5.521.521,0,0,0-.394-.173.529.529,0,0,0-.41.181.7.7,0,0,0-.159.493Z" transform="translate(-563.451 944.497)"/>
      <path id="Tracé_108" data-name="Tracé 108" d="M611.3-929.821v.605h-.518v1.157a3.021,3.021,0,0,0,.014.409.164.164,0,0,0,.067.1.223.223,0,0,0,.129.038.968.968,0,0,0,.3-.074l.066.589a1.5,1.5,0,0,1-.6.115.941.941,0,0,1-.369-.07.541.541,0,0,1-.243-.178.706.706,0,0,1-.107-.3,3.616,3.616,0,0,1-.024-.537v-1.251h-.349v-.605h.349v-.572l.762-.442v1.014Z" transform="translate(-562.73 944.268)"/>
      <path id="Tracé_109" data-name="Tracé 109" d="M615.148-926.932h-.705v-.421a1.142,1.142,0,0,1-.415.365,1.061,1.061,0,0,1-.482.121,1.1,1.1,0,0,1-.849-.4,1.631,1.631,0,0,1-.352-1.112,1.608,1.608,0,0,1,.343-1.11,1.122,1.122,0,0,1,.869-.38,1.075,1.075,0,0,1,.833.4v-1.427h.759Zm-2.027-1.5a1.312,1.312,0,0,0,.127.664.573.573,0,0,0,.514.3.557.557,0,0,0,.445-.223,1.028,1.028,0,0,0,.183-.666,1.121,1.121,0,0,0-.178-.713.562.562,0,0,0-.456-.217.57.57,0,0,0-.453.215A.974.974,0,0,0,613.12-928.43Z" transform="translate(-561.88 944.249)"/>
      <path id="Tracé_110" data-name="Tracé 110" d="M616.755-928.094l.757.128a1.239,1.239,0,0,1-.461.634,1.362,1.362,0,0,1-.787.217,1.286,1.286,0,0,1-1.108-.489,1.644,1.644,0,0,1-.285-.99,1.588,1.588,0,0,1,.373-1.118,1.23,1.23,0,0,1,.944-.4,1.279,1.279,0,0,1,1.012.423,1.883,1.883,0,0,1,.353,1.3h-1.9a.768.768,0,0,0,.185.526.568.568,0,0,0,.438.189.463.463,0,0,0,.3-.1A.6.6,0,0,0,616.755-928.094Zm.043-.767a.728.728,0,0,0-.171-.5.523.523,0,0,0-.394-.173.527.527,0,0,0-.41.181.7.7,0,0,0-.159.493Z" transform="translate(-561.076 944.497)"/>
      <path id="Tracé_111" data-name="Tracé 111" d="M618.542-926.932v-3.962h.759v3.962Z" transform="translate(-559.908 944.249)"/>
      <path id="Tracé_112" data-name="Tracé 112" d="M619.709-930.887h.761v.543a1.929,1.929,0,0,1-.057.521.772.772,0,0,1-.216.343,1.122,1.122,0,0,1-.4.237l-.149-.314a.64.64,0,0,0,.328-.208.639.639,0,0,0,.1-.362h-.369Z" transform="translate(-559.556 944.251)"/>
      <path id="Tracé_113" data-name="Tracé 113" d="M620.876-930.192v-.7h.759v.7Zm0,3.26v-2.87h.759v2.87Z" transform="translate(-559.165 944.249)"/>
      <path id="Tracé_114" data-name="Tracé 114" d="M624.654-927.18H623.9v-1.465a2.2,2.2,0,0,0-.049-.6.428.428,0,0,0-.157-.212.456.456,0,0,0-.264-.075.616.616,0,0,0-.355.108.538.538,0,0,0-.215.287,2.492,2.492,0,0,0-.058.659v1.3h-.76v-2.87h.706v.42a1.149,1.149,0,0,1,.946-.486,1.141,1.141,0,0,1,.46.091.782.782,0,0,1,.314.231.818.818,0,0,1,.149.319,2.418,2.418,0,0,1,.041.511Z" transform="translate(-558.796 944.497)"/>
      <path id="Tracé_115" data-name="Tracé 115" d="M627.22-927.18h-.759v-1.465a2.263,2.263,0,0,0-.049-.6.438.438,0,0,0-.158-.212.453.453,0,0,0-.264-.075.615.615,0,0,0-.353.108.537.537,0,0,0-.215.287,2.434,2.434,0,0,0-.058.659v1.3H624.6v-2.87h.706v.42a1.145,1.145,0,0,1,.945-.486,1.136,1.136,0,0,1,.46.091.763.763,0,0,1,.314.231.837.837,0,0,1,.15.319,2.494,2.494,0,0,1,.041.511Z" transform="translate(-557.979 944.497)"/>
      <path id="Tracé_116" data-name="Tracé 116" d="M627.04-928.655a1.543,1.543,0,0,1,.187-.733,1.276,1.276,0,0,1,.529-.54,1.555,1.555,0,0,1,.763-.187,1.432,1.432,0,0,1,1.068.423,1.459,1.459,0,0,1,.417,1.069,1.474,1.474,0,0,1-.421,1.08,1.421,1.421,0,0,1-1.058.43,1.675,1.675,0,0,1-.753-.179,1.217,1.217,0,0,1-.544-.523A1.729,1.729,0,0,1,627.04-928.655Zm.779.04a.958.958,0,0,0,.2.655.653.653,0,0,0,.5.227.643.643,0,0,0,.5-.227.958.958,0,0,0,.2-.66.939.939,0,0,0-.2-.649.639.639,0,0,0-.5-.227.648.648,0,0,0-.5.227A.954.954,0,0,0,627.819-928.616Z" transform="translate(-557.205 944.497)"/>
      <path id="Tracé_117" data-name="Tracé 117" d="M630.617-927.2l-1.157-2.87h.8l.542,1.464.155.489c.042-.124.069-.206.078-.247.026-.08.053-.162.082-.243l.546-1.464h.782L631.3-927.2Z" transform="translate(-556.434 944.513)"/>
      <path id="Tracé_118" data-name="Tracé 118" d="M632.691-929.175,632-929.3a1.079,1.079,0,0,1,.4-.615,1.467,1.467,0,0,1,.844-.2,1.809,1.809,0,0,1,.757.121.75.75,0,0,1,.35.3,1.572,1.572,0,0,1,.1.68l-.008.887a3.149,3.149,0,0,0,.036.558,1.639,1.639,0,0,0,.137.385h-.753c-.018-.05-.043-.125-.072-.224a.589.589,0,0,0-.028-.088,1.364,1.364,0,0,1-.415.283,1.188,1.188,0,0,1-.473.095.976.976,0,0,1-.7-.241.8.8,0,0,1-.256-.608.8.8,0,0,1,.117-.434.741.741,0,0,1,.326-.293,2.541,2.541,0,0,1,.6-.177,4.1,4.1,0,0,0,.737-.187v-.075a.391.391,0,0,0-.108-.312.643.643,0,0,0-.407-.094.534.534,0,0,0-.316.08A.551.551,0,0,0,632.691-929.175Zm1.015.616a4.388,4.388,0,0,1-.461.117,1.381,1.381,0,0,0-.414.132.319.319,0,0,0-.149.268.374.374,0,0,0,.12.277.416.416,0,0,0,.3.115.658.658,0,0,0,.392-.135.466.466,0,0,0,.182-.252,1.445,1.445,0,0,0,.029-.37Z" transform="translate(-555.651 944.497)"/>
      <path id="Tracé_119" data-name="Tracé 119" d="M635.8-929.821v.605h-.518v1.157a3.032,3.032,0,0,0,.014.409.165.165,0,0,0,.067.1.22.22,0,0,0,.129.038.974.974,0,0,0,.3-.074l.066.589a1.5,1.5,0,0,1-.6.115.936.936,0,0,1-.369-.07.543.543,0,0,1-.243-.178.706.706,0,0,1-.107-.3,3.543,3.543,0,0,1-.025-.537v-1.251h-.348v-.605h.348v-.572l.763-.442v1.014Z" transform="translate(-554.935 944.268)"/>
      <path id="Tracé_120" data-name="Tracé 120" d="M635.81-930.192v-.7h.759v.7Zm0,3.26v-2.87h.759v2.87Z" transform="translate(-554.414 944.249)"/>
      <path id="Tracé_121" data-name="Tracé 121" d="M636.843-928.655a1.557,1.557,0,0,1,.186-.733,1.286,1.286,0,0,1,.53-.54,1.555,1.555,0,0,1,.763-.187,1.43,1.43,0,0,1,1.066.423,1.46,1.46,0,0,1,.418,1.069,1.475,1.475,0,0,1-.422,1.08,1.416,1.416,0,0,1-1.057.43,1.685,1.685,0,0,1-.754-.179,1.23,1.23,0,0,1-.544-.523A1.744,1.744,0,0,1,636.843-928.655Zm.779.04a.951.951,0,0,0,.2.655.649.649,0,0,0,.5.227.643.643,0,0,0,.5-.227.965.965,0,0,0,.2-.66.946.946,0,0,0-.2-.649.639.639,0,0,0-.5-.227.645.645,0,0,0-.5.227A.947.947,0,0,0,637.622-928.616Z" transform="translate(-554.086 944.497)"/>
      <path id="Tracé_122" data-name="Tracé 122" d="M642.154-927.18h-.759v-1.465a2.206,2.206,0,0,0-.049-.6.428.428,0,0,0-.157-.212.456.456,0,0,0-.264-.075.616.616,0,0,0-.355.108.537.537,0,0,0-.215.287,2.491,2.491,0,0,0-.058.659v1.3h-.761v-2.87h.706v.42a1.149,1.149,0,0,1,.946-.486,1.141,1.141,0,0,1,.46.091.781.781,0,0,1,.314.231.818.818,0,0,1,.149.319,2.4,2.4,0,0,1,.041.511Z" transform="translate(-553.229 944.497)"/>
    </g>
  </g>
</svg>
