<svg xmlns="http://www.w3.org/2000/svg" width="202" height="66.918" viewBox="0 0 202 66.918">
  <g id="Groupe_33" data-name="Groupe 33" transform="translate(-132.294 643.742)">
    <g id="Groupe_29" data-name="Groupe 29" transform="translate(299.944 -643.742)">
      <circle id="Ellipse_63" data-name="Ellipse 63" cx="17.175" cy="17.175" r="17.175" fill="#5770be"/>
      <path id="Tracé_123" data-name="Tracé 123" d="M302.165-637.2h-1.641l-3.875,6.653,1.638.954,3.055-5.246,6.214,10.654,1.64-.95Z" transform="translate(-282.338 644.443)" fill="#fff"/>
      <g id="Groupe_28" data-name="Groupe 28" transform="translate(10.533 22.206)">
        <rect id="Rectangle_590" data-name="Rectangle 590" width="17.323" height="1.895" fill="#fff"/>
      </g>
      <path id="Tracé_124" data-name="Tracé 124" d="M302.761-629.914a5.312,5.312,0,0,1-4.074,1.9,5.308,5.308,0,0,1-3.873-1.672h-1.688l-.07.118-4.375,7.49,1.636.956,3.177-5.44h-.008l.675-1.159a7.176,7.176,0,0,0,4.525,1.6,7.2,7.2,0,0,0,5.476-2.52Z" transform="translate(-283.191 645.224)" fill="#fff"/>
    </g>
    <path id="Tracé_125" data-name="Tracé 125" d="M133.966-631.817h5.319v19.3h9.552v4.169H133.966Z" transform="translate(0.179 1.277)" fill="#353d4d"/>
    <path id="Tracé_126" data-name="Tracé 126" d="M149.175-613.676c0-4.006,3.677-5.516,8.929-5.516h1.936v-.69c0-2.035-.623-3.151-2.79-3.151a2.589,2.589,0,0,0-2.922,2.43h-4.5c.3-4.072,3.512-5.877,7.714-5.877s7.19,1.706,7.19,6.368v11.194h-4.629v-2.068a5.836,5.836,0,0,1-5.187,2.429C151.8-608.556,149.175-610.066,149.175-613.676Zm10.865-1.249v-1.444H158.2c-2.758,0-4.366.591-4.366,2.43,0,1.247.755,2.067,2.5,2.067C158.433-611.872,160.04-613.021,160.04-614.925Z" transform="translate(1.808 1.849)" fill="#353d4d"/>
    <path id="Tracé_127" data-name="Tracé 127" d="M173.871-631.817h8.4c5.548,0,9.061,2.265,9.061,7.124v.131c0,3.545-2.068,5.417-4.826,6.237l6.2,9.98h-5.646l-5.613-9.061h-2.3v9.061h-5.285Zm8.272,10.8c2.659,0,4.006-1.115,4.006-3.381v-.131c0-2.4-1.445-3.217-4.006-3.217h-2.987v6.729Z" transform="translate(4.454 1.277)" fill="#353d4d"/>
    <path id="Tracé_128" data-name="Tracé 128" d="M191.867-616.6v-.261a8.524,8.524,0,0,1,8.831-8.929c4.432,0,8.371,2.593,8.371,8.732v1.313H196.693c.132,2.855,1.674,4.5,4.268,4.5,2.2,0,3.283-.952,3.578-2.4h4.5c-.558,3.711-3.513,5.778-8.207,5.778C195.642-607.863,191.867-611.114,191.867-616.6Zm12.574-2.067c-.164-2.593-1.477-3.842-3.742-3.842-2.135,0-3.578,1.413-3.939,3.842Zm-3.874-14.281h4.99l-3.414,5.22H198.7Z" transform="translate(6.382 1.157)" fill="#353d4d"/>
    <path id="Tracé_129" data-name="Tracé 129" d="M209.4-608.556h4.727c.294,1.511,1.378,2.5,3.807,2.5,2.89,0,4.333-1.51,4.333-4.2v-2.593a6.438,6.438,0,0,1-5.515,3.184c-4.169,0-7.485-3.119-7.485-8.207v-.23c0-4.923,3.283-8.37,7.551-8.37a5.769,5.769,0,0,1,5.449,2.954v-2.56H227v15.822c-.033,5.088-3.414,7.681-9.061,7.681C212.389-602.582,209.861-605.01,209.4-608.556Zm13-9.388v-.23c0-2.922-1.543-4.694-4.136-4.694-2.659,0-4.136,1.9-4.136,4.727v.262c0,2.856,1.674,4.629,4.038,4.629C220.661-613.25,222.4-615.023,222.4-617.944Z" transform="translate(8.246 1.849)" fill="#353d4d"/>
    <path id="Tracé_130" data-name="Tracé 130" d="M228.867-630.321a2.6,2.6,0,0,1,2.691-2.593,2.61,2.61,0,0,1,2.726,2.593,2.611,2.611,0,0,1-2.726,2.594A2.6,2.6,0,0,1,228.867-630.321Zm.361,4.926h4.727v17.168h-4.727Z" transform="translate(10.345 1.16)" fill="#353d4d"/>
    <path id="Tracé_131" data-name="Tracé 131" d="M236.456-617.321v-.262c0-5.383,3.907-8.9,9.061-8.9s9.029,3.446,9.029,8.8v.263c0,5.415-3.907,8.863-9.061,8.863C240.363-608.556,236.456-611.969,236.456-617.321Zm13.263-.065v-.229c0-3.284-1.543-5.253-4.2-5.253-2.626,0-4.2,1.9-4.2,5.187v.263c0,3.283,1.51,5.252,4.2,5.252C248.176-612.166,249.719-614.136,249.719-617.386Z" transform="translate(11.158 1.849)" fill="#353d4d"/>
    <path id="Tracé_132" data-name="Tracé 132" d="M255.668-626.085h4.761v2.723a5.932,5.932,0,0,1,5.58-3.118c3.382,0,5.778,2.035,5.778,6.631v10.932h-4.759v-10.242c0-2.332-.919-3.448-3.02-3.448-2.036,0-3.578,1.248-3.578,3.776v9.913h-4.761Z" transform="translate(13.216 1.849)" fill="#353d4d"/>
    <path id="Tracé_133" data-name="Tracé 133" d="M136.915-598.673h2.141L143.6-585.24h-1.615l-1.315-3.869H135.13l-1.3,3.869h-1.54Zm-1.334,8.266h4.659l-2.329-6.912Z" transform="translate(0 4.828)" fill="#353d4d"/>
    <path id="Tracé_134" data-name="Tracé 134" d="M144.205-589.2v-6.219h1.559v6.143c0,1.729.733,2.5,2.274,2.5a2.585,2.585,0,0,0,2.7-2.686v-5.956h1.56v9.826h-1.56v-1.559a3.354,3.354,0,0,1-3.119,1.727C145.67-585.421,144.205-586.491,144.205-589.2Z" transform="translate(1.276 5.177)" fill="#353d4d"/>
    <path id="Tracé_135" data-name="Tracé 135" d="M153.367-595.415h1.692l2.912,8.248,2.874-8.248h1.615l-3.532,9.826h-1.992Z" transform="translate(2.257 5.177)" fill="#353d4d"/>
    <path id="Tracé_136" data-name="Tracé 136" d="M162.513-590.382v-.151c0-2.968,1.9-5.034,4.6-5.034,2.273,0,4.415,1.371,4.415,4.884v.508h-7.4c.075,2.235,1.146,3.475,3.156,3.475,1.522,0,2.4-.564,2.612-1.711h1.559c-.339,1.974-1.973,3.006-4.189,3.006A4.618,4.618,0,0,1,162.513-590.382Zm7.421-1.053c-.151-2.028-1.2-2.835-2.819-2.835a2.945,2.945,0,0,0-2.931,2.835Z" transform="translate(3.237 5.161)" fill="#353d4d"/>
    <path id="Tracé_137" data-name="Tracé 137" d="M172.812-595.4h1.559v1.766a3.43,3.43,0,0,1,3.232-1.934v1.465c-1.973.094-3.232.714-3.232,3.138v5.392h-1.559Z" transform="translate(4.34 5.161)" fill="#353d4d"/>
    <path id="Tracé_138" data-name="Tracé 138" d="M178.482-585.008h1.6c.225,1.126,1.165,1.708,2.836,1.708,1.935,0,3.156-.92,3.156-3.024v-1.428a4.072,4.072,0,0,1-3.326,1.859,4.424,4.424,0,0,1-4.471-4.658v-.133a4.649,4.649,0,0,1,4.583-4.884,3.521,3.521,0,0,1,3.213,1.746V-595.4h1.559v9.169c-.019,2.854-1.954,4.245-4.7,4.245C180.023-581.985,178.745-583.357,178.482-585.008Zm7.647-5.655v-.132c0-2.2-1.2-3.475-3.119-3.475-1.954,0-3.119,1.446-3.119,3.513v.149a3.1,3.1,0,0,0,3.025,3.42A3.163,3.163,0,0,0,186.129-590.664Z" transform="translate(4.926 5.161)" fill="#353d4d"/>
    <path id="Tracé_139" data-name="Tracé 139" d="M189.576-595.4h1.559v1.559a3.379,3.379,0,0,1,3.156-1.727c2.029,0,3.458,1.108,3.458,3.964v6.031h-1.56v-6.143c0-1.727-.733-2.5-2.311-2.5a2.585,2.585,0,0,0-2.743,2.686v5.956h-1.559Z" transform="translate(6.136 5.161)" fill="#353d4d"/>
    <path id="Tracé_140" data-name="Tracé 140" d="M199.061-590.382v-.151c0-2.968,1.9-5.034,4.6-5.034,2.274,0,4.415,1.371,4.415,4.884v.508h-7.4c.075,2.235,1.146,3.475,3.156,3.475,1.522,0,2.4-.564,2.612-1.711H208c-.338,1.974-1.973,3.006-4.189,3.006A4.618,4.618,0,0,1,199.061-590.382Zm7.421-1.053c-.151-2.028-1.2-2.835-2.819-2.835a2.945,2.945,0,0,0-2.931,2.835Z" transform="translate(7.152 5.161)" fill="#353d4d"/>
    <path id="Tracé_141" data-name="Tracé 141" d="M208.953-591.868h4.02v1.465h-4.02Z" transform="translate(8.212 5.557)" fill="#353d4d"/>
    <path id="Tracé_142" data-name="Tracé 142" d="M215.129-598.673h4.04c2.573,0,4.7,1.052,4.7,3.739v.075c0,2.216-1.485,3.306-3.326,3.662l4.114,5.956h-1.821l-4-5.843h-2.066v5.843h-1.635Zm4.152,6.294c1.916,0,2.95-.826,2.95-2.48v-.075c0-1.822-1.128-2.423-2.95-2.423h-2.516v4.979Z" transform="translate(8.873 4.828)" fill="#353d4d"/>
    <path id="Tracé_143" data-name="Tracé 143" d="M225.683-599.657h1.56v6.255a3.376,3.376,0,0,1,3.155-1.727c2.029,0,3.458,1.108,3.458,3.964v6.031H232.3v-6.143c0-1.727-.733-2.5-2.311-2.5a2.585,2.585,0,0,0-2.742,2.686v5.956h-1.56Z" transform="translate(10.004 4.723)" fill="#353d4d"/>
    <path id="Tracé_144" data-name="Tracé 144" d="M235.168-589.992v-.149A4.748,4.748,0,0,1,240-595.158a4.733,4.733,0,0,1,4.828,5v.151A4.742,4.742,0,0,1,239.977-585,4.749,4.749,0,0,1,235.168-589.992Zm8.041,0v-.132c0-2.273-1.259-3.738-3.213-3.738-1.973,0-3.213,1.465-3.213,3.72v.149c0,2.235,1.221,3.7,3.213,3.7C241.968-586.291,243.209-587.776,243.209-589.992Zm-3.908-9.393h1.409l2.009,2.7h-1.146l-1.6-1.408-1.6,1.408h-1.108Z" transform="translate(11.02 4.752)" fill="#353d4d"/>
    <path id="Tracé_145" data-name="Tracé 145" d="M246.078-595.4h1.559v1.559a3.379,3.379,0,0,1,3.156-1.727c2.029,0,3.456,1.108,3.456,3.964v6.031h-1.559v-6.143c0-1.727-.733-2.5-2.311-2.5a2.586,2.586,0,0,0-2.743,2.686v5.956h-1.559Z" transform="translate(12.189 5.161)" fill="#353d4d"/>
    <path id="Tracé_146" data-name="Tracé 146" d="M255.563-590.382v-.151c0-2.968,1.9-5.034,4.6-5.034,2.273,0,4.415,1.371,4.415,4.884v.508h-7.4c.075,2.235,1.146,3.475,3.156,3.475,1.521,0,2.4-.564,2.612-1.711h1.559c-.339,1.974-1.973,3.006-4.189,3.006A4.617,4.617,0,0,1,255.563-590.382Zm7.42-1.053c-.149-2.028-1.2-2.835-2.818-2.835a2.945,2.945,0,0,0-2.931,2.835Z" transform="translate(13.205 5.161)" fill="#353d4d"/>
    <path id="Tracé_147" data-name="Tracé 147" d="M265.455-591.868h4.02v1.465h-4.02Z" transform="translate(14.264 5.557)" fill="#353d4d"/>
    <path id="Tracé_148" data-name="Tracé 148" d="M274.827-598.673h2.141l4.547,13.433H279.9l-1.315-3.869h-5.542l-1.3,3.869h-1.54Zm-1.334,8.266h4.66l-2.331-6.912Z" transform="translate(14.773 4.828)" fill="#353d4d"/>
    <path id="Tracé_149" data-name="Tracé 149" d="M282.491-599.657h1.578v14.522h-1.578Z" transform="translate(16.089 4.723)" fill="#353d4d"/>
    <path id="Tracé_150" data-name="Tracé 150" d="M286.8-595.4h1.56v1.654a4.039,4.039,0,0,1,3.325-1.822c2.574,0,4.472,1.879,4.472,4.94v.151c0,3.006-1.766,5.072-4.472,5.072a3.724,3.724,0,0,1-3.325-1.784v5.034H286.8Zm7.74,5v-.149c0-2.481-1.371-3.72-3.025-3.72-1.822,0-3.212,1.2-3.212,3.72v.149c0,2.518,1.314,3.7,3.231,3.7C293.488-586.7,294.54-588.015,294.54-590.4Z" transform="translate(16.551 5.161)" fill="#353d4d"/>
    <path id="Tracé_151" data-name="Tracé 151" d="M296.777-590.382v-.151c0-2.968,1.9-5.034,4.6-5.034,2.274,0,4.415,1.371,4.415,4.884v.508h-7.4c.075,2.235,1.147,3.475,3.156,3.475,1.522,0,2.4-.564,2.612-1.711h1.559c-.338,1.974-1.972,3.006-4.189,3.006A4.618,4.618,0,0,1,296.777-590.382Zm7.421-1.053c-.151-2.028-1.2-2.835-2.819-2.835a2.946,2.946,0,0,0-2.931,2.835Z" transform="translate(17.62 5.161)" fill="#353d4d"/>
    <path id="Tracé_152" data-name="Tracé 152" d="M306.432-588.6h1.521c.113,1.166.733,1.9,2.311,1.9,1.485,0,2.142-.508,2.142-1.559,0-1.034-.771-1.372-2.293-1.654-2.554-.469-3.419-1.183-3.419-2.893,0-1.822,1.785-2.761,3.326-2.761,1.766,0,3.287.714,3.551,2.835h-1.5c-.225-1.07-.826-1.539-2.066-1.539-1.128,0-1.86.562-1.86,1.408,0,.883.488,1.24,2.292,1.559,2.029.375,3.456.827,3.456,2.913,0,1.784-1.221,2.986-3.607,2.986C307.934-585.4,306.525-586.587,306.432-588.6Z" transform="translate(18.654 5.161)" fill="#353d4d"/>
  </g>
</svg>
