<svg xmlns="http://www.w3.org/2000/svg" width="304" height="50" viewBox="0 0 304 50">
  <g id="Groupe_35" data-name="Groupe 35" transform="translate(-575 -1199.989)">
    <text id="_2_12_octobre_2020" data-name="2 ► 12 octobre 2020" transform="translate(623 1199.989)" font-size="21" font-family="Arial-BoldMT, Arial" font-weight="700"><tspan x="0" y="19">2 ► 12 octobre 2020</tspan></text>
    <text id="_FDS2020" data-name="#FDS2020" transform="translate(605 1226.989)" font-size="21" font-family="Arial-BoldMT, Arial" font-weight="700"><tspan x="0" y="19">#FDS2020</tspan></text>
    <g id="Groupe_34" data-name="Groupe 34" transform="translate(-54.854 1826.598)">
      <path id="Tracé_153" data-name="Tracé 153" d="M636.185-587.182a6.33,6.33,0,0,0,6.329-6.331,6.332,6.332,0,0,0-6.329-6.329,6.332,6.332,0,0,0-6.331,6.329,6.33,6.33,0,0,0,6.331,6.331" transform="translate(0 4.909)" fill="#009f3b"/>
      <path id="Tracé_154" data-name="Tracé 154" d="M647.364-598.358a6.331,6.331,0,0,0,6.331-6.331,6.333,6.333,0,0,0-6.331-6.329,6.333,6.333,0,0,0-6.331,6.329,6.331,6.331,0,0,0,6.331,6.331" transform="translate(2.397 2.513)" fill="#009f3b"/>
      <path id="Tracé_155" data-name="Tracé 155" d="M659.083-610.082a6.33,6.33,0,0,0,6.331-6.329,6.332,6.332,0,0,0-6.331-6.331,6.332,6.332,0,0,0-6.329,6.331,6.329,6.329,0,0,0,6.329,6.329" transform="translate(4.909 0)" fill="#009f3b"/>
    </g>
  </g>
</svg>
